<svg width="82" height="82" viewBox="0 0 82 82" fill="none" xmlns="http://www.w3.org/2000/svg">
<rect width="82" height="82" rx="30" fill="#4E7AD9"/>
<g clip-path="url(#clip0_538_251)">
<path d="M32.0828 54.0914C30.5594 53.543 28.8633 53.7766 27.5531 54.7414C26.7203 55.3508 25.2883 56.2445 23.5516 57.0469C24.1203 55.5539 24.557 53.868 24.6992 52.0297C24.8008 50.7195 24.3641 49.4195 23.5008 48.4242C21.1344 45.7531 19.875 42.625 19.875 39.375C19.875 31.3008 28.3352 23.125 41 23.125C53.6648 23.125 62.125 31.3008 62.125 39.375C62.125 47.4492 53.6648 55.625 41 55.625C37.7906 55.625 34.7742 55.0664 32.0828 54.0914ZM17.6711 58.0422C17.5086 58.3164 17.3359 58.5906 17.1531 58.8648L17.1227 58.9156C16.9602 59.1492 16.7977 59.3828 16.6352 59.6164C16.2797 60.0937 15.8938 60.5609 15.4875 60.9875C15.0203 61.4547 14.8883 62.1453 15.1422 62.7547C15.3961 63.3641 15.9852 63.7602 16.6453 63.7602C17.1633 63.7602 17.6813 63.7297 18.1992 63.6789L18.2703 63.6688C18.7172 63.618 19.1641 63.557 19.6109 63.4758C19.6922 63.4656 19.7734 63.4453 19.8547 63.425C21.6625 63.0695 23.3992 62.4602 24.943 61.7898C27.2688 60.7742 29.2492 59.5656 30.4578 58.682C33.6875 59.85 37.2625 60.5 41.0305 60.5C55.3914 60.5 67.0305 51.0445 67.0305 39.375C67.0305 27.7055 55.3609 18.25 41 18.25C26.6391 18.25 15 27.7055 15 39.375C15 43.9555 16.7977 48.1906 19.8445 51.6539C19.6516 54.1422 18.6867 56.3562 17.6711 58.0422ZM29.625 42.625C30.487 42.625 31.3136 42.2826 31.9231 41.6731C32.5326 41.0636 32.875 40.237 32.875 39.375C32.875 38.513 32.5326 37.6864 31.9231 37.0769C31.3136 36.4674 30.487 36.125 29.625 36.125C28.763 36.125 27.9364 36.4674 27.3269 37.0769C26.7174 37.6864 26.375 38.513 26.375 39.375C26.375 40.237 26.7174 41.0636 27.3269 41.6731C27.9364 42.2826 28.763 42.625 29.625 42.625ZM44.25 39.375C44.25 38.513 43.9076 37.6864 43.2981 37.0769C42.6886 36.4674 41.862 36.125 41 36.125C40.138 36.125 39.3114 36.4674 38.7019 37.0769C38.0924 37.6864 37.75 38.513 37.75 39.375C37.75 40.237 38.0924 41.0636 38.7019 41.6731C39.3114 42.2826 40.138 42.625 41 42.625C41.862 42.625 42.6886 42.2826 43.2981 41.6731C43.9076 41.0636 44.25 40.237 44.25 39.375ZM52.375 42.625C53.237 42.625 54.0636 42.2826 54.6731 41.6731C55.2826 41.0636 55.625 40.237 55.625 39.375C55.625 38.513 55.2826 37.6864 54.6731 37.0769C54.0636 36.4674 53.237 36.125 52.375 36.125C51.513 36.125 50.6864 36.4674 50.0769 37.0769C49.4674 37.6864 49.125 38.513 49.125 39.375C49.125 40.237 49.4674 41.0636 50.0769 41.6731C50.6864 42.2826 51.513 42.625 52.375 42.625Z" fill="white"/>
</g>
<defs>
<clipPath id="clip0_538_251">
<rect width="52" height="52" fill="white" transform="translate(15 15)"/>
</clipPath>
</defs>
</svg>
