<svg width="32" height="32" viewBox="0 0 32 32" fill="none" xmlns="http://www.w3.org/2000/svg">
<path d="M28.3332 16.0001C28.3332 22.8115 22.8113 28.3334 15.9998 28.3334V30.3334C23.916 30.3334 30.3332 23.9162 30.3332 16.0001H28.3332ZM15.9998 28.3334C9.18833 28.3334 3.6665 22.8115 3.6665 16.0001H1.6665C1.6665 23.9162 8.08376 30.3334 15.9998 30.3334V28.3334ZM3.6665 16.0001C3.6665 9.18857 9.18833 3.66675 15.9998 3.66675V1.66675C8.08376 1.66675 1.6665 8.084 1.6665 16.0001H3.6665ZM20.6665 19.0001C16.4324 19.0001 12.9998 15.5675 12.9998 11.3334H10.9998C10.9998 16.6722 15.3277 21.0001 20.6665 21.0001V19.0001ZM27.2336 15.2921C25.8894 17.5165 23.4508 19.0001 20.6665 19.0001V21.0001C24.1797 21.0001 27.2541 19.1253 28.9454 16.3263L27.2336 15.2921ZM12.9998 11.3334C12.9998 8.54917 14.4834 6.11048 16.7078 4.76631L15.6736 3.05455C12.8746 4.74581 10.9998 7.8202 10.9998 11.3334H12.9998ZM15.9998 3.66675C15.8818 3.66675 15.7434 3.61352 15.643 3.50899C15.558 3.42044 15.5382 3.33667 15.5336 3.30279C15.528 3.26124 15.5308 3.14084 15.6736 3.05455L16.7078 4.76631C17.3788 4.36095 17.5945 3.61872 17.5156 3.03511C17.4337 2.42843 16.9553 1.66675 15.9998 1.66675V3.66675ZM28.9454 16.3263C28.859 16.4691 28.7386 16.4719 28.6972 16.4663C28.6633 16.4617 28.5794 16.4419 28.4909 16.3569C28.3864 16.2565 28.3332 16.1181 28.3332 16.0001H30.3332C30.3332 15.0446 29.5714 14.5662 28.9648 14.4843C28.3812 14.4054 27.6389 14.6211 27.2336 15.2921L28.9454 16.3263Z" fill="black"/>
</svg>
