<svg width="27" height="27" viewBox="0 0 27 27" fill="none" xmlns="http://www.w3.org/2000/svg">
<path d="M10.5471 23.6251C9.70332 23.6251 9.02832 23.2876 8.4377 22.7813C7.25645 21.6001 7.25645 19.7438 8.4377 18.5626L13.2471 13.6688C13.3314 13.5845 13.3314 13.5001 13.2471 13.4157L8.4377 8.52197C7.25645 7.34072 7.25645 5.48447 8.4377 4.30322C9.02832 3.7126 9.7877 3.45947 10.5471 3.45947C11.3908 3.45947 12.0658 3.79697 12.6564 4.30322L20.5033 12.2345C21.2627 12.9938 21.2627 14.1751 20.5033 14.8501L12.6564 22.7813C12.1502 23.2876 11.3908 23.6251 10.5471 23.6251Z" fill="white"/>
</svg>
