<svg width="15" height="21" viewBox="0 0 15 21" fill="none" xmlns="http://www.w3.org/2000/svg">
<path d="M3.54707 20.6251C2.70332 20.6251 2.02832 20.2876 1.4377 19.7813C0.256445 18.6001 0.256445 16.7438 1.4377 15.5626L6.24707 10.6688C6.33145 10.5845 6.33145 10.5001 6.24707 10.4157L1.4377 5.52197C0.256445 4.34072 0.256445 2.48447 1.4377 1.30322C2.02832 0.712598 2.7877 0.459473 3.54707 0.459473C4.39082 0.459473 5.06582 0.796973 5.65645 1.30322L13.5033 9.23447C14.2627 9.99385 14.2627 11.1751 13.5033 11.8501L5.65645 19.7813C5.1502 20.2876 4.39082 20.6251 3.54707 20.6251Z" fill="white"/>
</svg>
