<svg width="32" height="32" viewBox="0 0 32 32" fill="none" xmlns="http://www.w3.org/2000/svg">
<path fill-rule="evenodd" clip-rule="evenodd" d="M27.6364 0C30.0464 0 32 1.95367 32 4.36364V27.6364C32 30.0464 30.0464 32 27.6364 32H4.36364C1.95367 32 0 30.0464 0 27.6364V4.36364C0 1.95367 1.95367 0 4.36364 0H27.6364ZM27.6364 2.90909C28.4397 2.90909 29.0909 3.56032 29.0909 4.36364V27.6364C29.0909 28.4397 28.4397 29.0909 27.6364 29.0909H20.3636V18.9089H23.3836C24.0096 18.9089 24.5654 18.5084 24.7635 17.9143L25.4079 15.9812C25.6433 15.2748 25.1175 14.5453 24.3729 14.5453H20.3636V11.6362C20.3636 10.909 21.0909 10.1817 21.8182 10.1817H24.7273C25.5306 10.1817 26.1818 9.53047 26.1818 8.72716V7.72935C26.1818 7.25951 25.8817 6.83825 25.4273 6.71836C23.5207 6.2152 21.8182 6.2152 21.8182 6.2152C18.1818 6.2152 16 8.72716 16 10.909V14.5453H13.0909C12.2876 14.5453 11.6364 15.1965 11.6364 15.9999V17.4544C11.6364 18.2577 12.2876 18.9089 13.0909 18.9089H16V29.0909H4.36364C3.56032 29.0909 2.90909 28.4397 2.90909 27.6364V4.36364C2.90909 3.56032 3.56032 2.90909 4.36364 2.90909H27.6364Z" fill="white"/>
</svg>
