<svg width="32" height="32" viewBox="0 0 32 32" fill="none" xmlns="http://www.w3.org/2000/svg">
<path fill-rule="evenodd" clip-rule="evenodd" d="M9.39145 31.8036C6.78684 31.6861 4.5293 31.0493 2.70639 29.2341C0.877112 27.4094 0.248226 25.1429 0.130413 22.5654C0.0571782 20.9566 -0.371063 8.8028 0.870746 5.61545C1.70817 3.46515 3.35751 1.81182 5.52748 0.971714C6.54004 0.57786 7.6959 0.311258 9.39145 0.233435C23.5688 -0.408161 28.8241 -0.0588684 31.0403 5.61545C31.4335 6.62549 31.7042 7.78034 31.779 9.47168C32.427 23.6853 31.674 26.7662 29.2031 29.2341C27.2432 31.1891 24.9379 32.5199 9.39145 31.8036ZM9.52197 3.09202C7.96971 3.16191 7.12752 3.42054 6.56552 3.63811C5.15177 4.1876 4.08987 5.24512 3.54379 6.6506C2.59811 9.07248 2.91176 20.5752 2.99614 22.4365C3.07892 24.2596 3.44828 25.9259 4.73466 27.2122C6.32672 28.8004 8.38365 29.5787 22.389 28.9466C24.2167 28.864 25.8868 28.4954 27.1764 27.2122C28.7684 25.6241 29.5581 23.5514 28.9149 9.59981C28.8448 8.0514 28.5853 7.2112 28.3672 6.6506C26.9264 2.95824 23.6117 2.44567 9.52197 3.09202ZM22.5435 24.4966C22.5435 23.4453 23.3984 22.5904 24.454 22.5904C25.5095 22.5904 26.366 23.4453 26.366 24.4966C26.366 25.548 25.5095 26.4021 24.454 26.4021C23.3984 26.4021 22.5435 25.548 22.5435 24.4966ZM7.78027 16.0193C7.78027 11.5154 11.4404 7.86387 15.9555 7.86387C20.4706 7.86387 24.1308 11.5154 24.1308 16.0193C24.1308 20.5232 20.4706 24.1724 15.9555 24.1724C11.4404 24.1724 7.78027 20.5232 7.78027 16.0193ZM10.6492 16.0193C10.6492 18.9414 13.0245 21.3123 15.9555 21.3123C18.8865 21.3123 21.2619 18.9414 21.2619 16.0193C21.2619 13.0956 18.8865 10.724 15.9555 10.724C13.0245 10.724 10.6492 13.0956 10.6492 16.0193Z" fill="white"/>
</svg>
