<svg width="32" height="32" viewBox="0 0 32 32" fill="none" xmlns="http://www.w3.org/2000/svg">
<g clip-path="url(#clip0_168_170)">
<path d="M7.99986 10.0739C9.14534 10.0739 10.0739 9.14534 10.0739 7.99986C10.0739 6.85437 9.14534 5.92578 7.99986 5.92578C6.85437 5.92578 5.92578 6.85437 5.92578 7.99986C5.92578 9.14534 6.85437 10.0739 7.99986 10.0739Z" fill="white"/>
<path d="M5.92578 13.2743C5.92578 12.4888 6.54485 11.8521 7.3085 11.8521H8.69121C9.45486 11.8521 10.0739 12.4888 10.0739 13.2743V24.6521C10.0739 25.4375 9.45486 26.0743 8.69121 26.0743H7.3085C6.54485 26.0743 5.92578 25.4375 5.92578 24.6521V13.2743Z" fill="white"/>
<path d="M14.4857 26.0743H15.9342C16.7343 26.0743 17.3828 25.4375 17.3828 24.6521V18.2521C17.3828 16.1187 21.7285 14.6965 21.7285 17.5409V24.6526C21.7285 25.4381 22.377 26.0743 23.177 26.0743H24.6256C25.4256 26.0743 26.0741 25.4375 26.0741 24.6521V16.1187C26.0741 13.2743 23.9013 11.8521 21.0042 11.8521C18.1071 11.8521 17.3828 13.9854 17.3828 13.9854V13.2743C17.3828 12.4888 16.7343 11.8521 15.9342 11.8521H14.4857C13.6856 11.8521 13.0371 12.4888 13.0371 13.2743V24.6521C13.0371 25.4375 13.6856 26.0743 14.4857 26.0743Z" fill="white"/>
<path fill-rule="evenodd" clip-rule="evenodd" d="M27.6364 0C30.0464 0 32 1.95367 32 4.36364V27.6364C32 30.0464 30.0464 32 27.6364 32H4.36364C1.95367 32 0 30.0464 0 27.6364V4.36364C0 1.95367 1.95367 0 4.36364 0H27.6364ZM27.6364 2.90909C28.4397 2.90909 29.0909 3.56032 29.0909 4.36364V27.6364C29.0909 28.4397 28.4397 29.0909 27.6364 29.0909H4.36364C3.56032 29.0909 2.90909 28.4397 2.90909 27.6364V4.36364C2.90909 3.56032 3.56032 2.90909 4.36364 2.90909H27.6364Z" fill="white"/>
</g>
<defs>
<clipPath id="clip0_168_170">
<rect width="32" height="32" fill="white"/>
</clipPath>
</defs>
</svg>
