<svg width="32" height="32" viewBox="0 0 32 32" fill="none" xmlns="http://www.w3.org/2000/svg">
<path d="M27.217 4.64009C25.7499 3.16293 24.0036 1.99204 22.0798 1.19546C20.1558 0.398882 18.0925 -0.00743693 16.01 0.000103044C13.2261 0.00282303 10.4915 0.7365 8.08047 2.12765C5.66942 3.51881 3.66645 5.51862 2.2721 7.92679C0.877749 10.335 0.141008 13.0671 0.135605 15.8493C0.130221 18.6317 0.856395 21.3664 2.2414 23.78L0 32L8.40525 29.8C10.7262 31.0904 13.3341 31.7782 15.99 31.8C20.212 31.8002 24.2632 30.1336 27.2614 27.1632C30.2599 24.193 31.963 20.1592 32 15.9401C31.986 13.8347 31.5561 11.7528 30.7354 9.81369C29.9147 7.87459 28.719 6.11648 27.217 4.64009ZM16.01 29.06C13.6439 29.0616 11.3211 28.426 9.2858 27.22L8.8055 26.92L3.82239 28.24L5.14321 23.38L4.82301 22.88C3.12045 20.1334 2.48503 16.8581 3.03714 13.6745C3.58924 10.491 5.29053 7.62039 7.81869 5.60654C10.3469 3.59267 13.5263 2.57541 16.7547 2.74747C19.9831 2.91951 23.0364 4.26893 25.3358 6.54008C27.8494 8.99645 29.2883 12.3471 29.3383 15.8601C29.3067 19.3718 27.8884 22.729 25.3923 25.2012C22.8963 27.6732 19.5242 29.0602 16.01 29.06ZM23.2345 19.1801C22.8343 18.9801 20.8931 18.0201 20.5328 17.9001C20.1726 17.7801 19.8924 17.7001 19.6323 18.1001C19.2408 18.6363 18.8198 19.1502 18.3715 19.64C18.1513 19.92 17.9112 19.94 17.5109 19.64C15.2289 18.7389 13.3277 17.0789 12.1276 14.9401C11.7073 14.2401 12.5278 14.2801 13.2883 12.7801C13.3445 12.6719 13.3738 12.5519 13.3738 12.4301C13.3738 12.3083 13.3445 12.1883 13.2883 12.0801C13.2883 11.8801 12.3877 9.92007 12.0675 9.14007C11.7473 8.36007 11.4271 8.48007 11.167 8.46007H10.3865C10.1843 8.46317 9.98504 8.50939 9.80213 8.59561C9.61921 8.68183 9.45683 8.80609 9.32583 8.96007C8.87679 9.39643 8.52655 9.92391 8.29871 10.5069C8.07086 11.09 7.97072 11.7151 8.005 12.3401C8.13048 13.8363 8.69429 15.2623 9.62602 16.4401C11.3315 18.9917 13.6687 21.0586 16.4103 22.44C17.8482 23.2788 19.5192 23.6296 21.1732 23.44C21.724 23.3308 22.2457 23.107 22.7042 22.783C23.1629 22.4592 23.5481 22.0424 23.8349 21.56C24.1007 20.9712 24.1843 20.3166 24.075 19.68C23.8949 19.48 23.6348 19.3801 23.2345 19.1801Z" fill="white"/>
</svg>
