<svg width="32" height="32" viewBox="0 0 32 32" fill="none" xmlns="http://www.w3.org/2000/svg">
<g clip-path="url(#clip0_168_128)">
<path fill-rule="evenodd" clip-rule="evenodd" d="M12.6614 9.50917C12.2487 9.27336 11.7417 9.27505 11.3306 9.51361C10.9195 9.75217 10.6665 10.1915 10.6665 10.6668V21.3335C10.6665 21.8088 10.9195 22.2482 11.3306 22.4867C11.7417 22.7252 12.2487 22.727 12.6614 22.4911L21.9946 17.1578C22.4101 16.9204 22.6665 16.4787 22.6665 16.0002C22.6665 15.5216 22.4101 15.0799 21.9946 14.8426L12.6614 9.50917ZM18.6457 16.0002L13.3332 19.0359V12.9644L18.6457 16.0002Z" fill="white"/>
<path fill-rule="evenodd" clip-rule="evenodd" d="M0 16C0 11.0004 0 8.50053 1.27322 6.74809C1.68441 6.18213 2.18213 5.68441 2.74809 5.27321C4.50053 4 7.00036 4 12 4H20C24.9996 4 27.4995 4 29.2519 5.27321C29.8179 5.68441 30.3156 6.18213 30.7268 6.74809C32 8.50053 32 11.0004 32 16C32 20.9996 32 23.4995 30.7268 25.2519C30.3156 25.8179 29.8179 26.3156 29.2519 26.7268C27.4995 28 24.9996 28 20 28H12C7.00036 28 4.50053 28 2.74809 26.7268C2.18213 26.3156 1.68441 25.8179 1.27322 25.2519C0 23.4995 0 20.9996 0 16ZM12 6.66667H20C22.5592 6.66667 24.2644 6.67033 25.5564 6.81031C26.7985 6.94488 27.3387 7.17931 27.6845 7.4306C28.024 7.67732 28.3227 7.97595 28.5695 8.31552C28.8207 8.6614 29.0551 9.20151 29.1897 10.4436C29.3297 11.7356 29.3333 13.4408 29.3333 16C29.3333 18.5592 29.3297 20.2644 29.1897 21.5564C29.0551 22.7985 28.8207 23.3387 28.5695 23.6845C28.3227 24.024 28.024 24.3227 27.6845 24.5695C27.3387 24.8207 26.7985 25.0551 25.5564 25.1897C24.2644 25.3297 22.5592 25.3333 20 25.3333H12C9.44077 25.3333 7.73556 25.3297 6.44359 25.1897C5.20151 25.0551 4.6614 24.8207 4.31552 24.5695C3.97595 24.3227 3.67732 24.024 3.4306 23.6845C3.17931 23.3387 2.94488 22.7985 2.81031 21.5564C2.67033 20.2644 2.66667 18.5592 2.66667 16C2.66667 13.4408 2.67033 11.7356 2.81031 10.4436C2.94488 9.20151 3.17931 8.6614 3.4306 8.31552C3.67732 7.97595 3.97595 7.67732 4.31552 7.4306C4.6614 7.17931 5.20151 6.94488 6.44359 6.81031C7.73556 6.67033 9.44077 6.66667 12 6.66667Z" fill="white"/>
</g>
<defs>
<clipPath id="clip0_168_128">
<rect width="32" height="32" fill="white"/>
</clipPath>
</defs>
</svg>
