<svg width="34" height="34" viewBox="0 0 34 34" fill="none" xmlns="http://www.w3.org/2000/svg">
<path fill-rule="evenodd" clip-rule="evenodd" d="M9.97842 0.208639C7.21101 0.333503 4.81238 1.0101 2.87554 2.93876C0.931931 4.87755 0.26374 7.28567 0.138564 10.0243C0.0607519 11.7336 -0.394254 24.647 0.925167 28.0336C1.81493 30.3183 3.56735 32.0749 5.87295 32.9676C6.94879 33.386 8.1769 33.6693 9.97842 33.752C25.0418 34.4337 30.6256 34.0625 32.9803 28.0336C33.3981 26.9604 33.6857 25.7334 33.7652 23.9363C34.4537 8.83437 33.6536 5.56093 31.0283 2.93876C28.9459 0.861601 26.4965 -0.552363 9.97842 0.208639ZM10.1171 30.7147C8.46781 30.6405 7.57299 30.3657 6.97587 30.1345C5.47376 29.5507 4.34549 28.4271 3.76528 26.9337C2.76049 24.3605 3.09374 12.1388 3.1834 10.1612C3.27136 8.22413 3.66379 6.45375 5.03058 5.08699C6.72214 3.39961 8.90762 2.57264 23.7883 3.24422C25.7302 3.33196 27.5047 3.7236 28.8749 5.08699C30.5665 6.77435 31.4055 8.97665 30.7221 23.8002C30.6476 25.4454 30.3719 26.3381 30.1402 26.9337C28.6093 30.8569 25.0874 31.4015 10.1171 30.7147ZM23.9524 7.97233C23.9524 9.08938 24.8608 9.99772 25.9823 9.99772C27.1038 9.99772 28.0139 9.08938 28.0139 7.97233C28.0139 6.8553 27.1038 5.94778 25.9823 5.94778C24.8608 5.94778 23.9524 6.8553 23.9524 7.97233ZM8.26653 16.9795C8.26653 21.7649 12.1555 25.6446 16.9527 25.6446C21.75 25.6446 25.6389 21.7649 25.6389 16.9795C25.6389 12.1941 21.75 8.31681 16.9527 8.31681C12.1555 8.31681 8.26653 12.1941 8.26653 16.9795ZM11.3147 16.9795C11.3147 13.8747 13.8386 11.3557 16.9527 11.3557C20.0669 11.3557 22.5907 13.8747 22.5907 16.9795C22.5907 20.0859 20.0669 22.6057 16.9527 22.6057C13.8386 22.6057 11.3147 20.0859 11.3147 16.9795Z" fill="black" fill-opacity="0.5"/>
</svg>
