<svg width="34" height="34" viewBox="0 0 34 34" fill="none" xmlns="http://www.w3.org/2000/svg">
<g clip-path="url(#clip0_739_212)">
<path d="M8.50009 10.7037C9.71717 10.7037 10.7038 9.71708 10.7038 8.5C10.7038 7.28292 9.71717 6.2963 8.50009 6.2963C7.28301 6.2963 6.29639 7.28292 6.29639 8.5C6.29639 9.71708 7.28301 10.7037 8.50009 10.7037Z" fill="black" fill-opacity="0.5"/>
<path d="M6.29639 14.1037C6.29639 13.2691 6.95415 12.5926 7.76552 12.5926H9.23466C10.046 12.5926 10.7038 13.2691 10.7038 14.1037V26.1926C10.7038 27.0272 10.046 27.7037 9.23466 27.7037H7.76552C6.95415 27.7037 6.29639 27.0272 6.29639 26.1926V14.1037Z" fill="black" fill-opacity="0.5"/>
<path d="M15.3911 27.7037H16.9302C17.7803 27.7037 18.4693 27.0272 18.4693 26.1926V19.3926C18.4693 17.1259 23.0866 15.6148 23.0866 18.637V26.1932C23.0866 27.0278 23.7757 27.7037 24.6257 27.7037H26.1648C27.0148 27.7037 27.7039 27.0272 27.7039 26.1926V17.1259C27.7039 14.1037 25.3953 12.5926 22.3171 12.5926C19.2389 12.5926 18.4693 14.8593 18.4693 14.8593V14.1037C18.4693 13.2691 17.7803 12.5926 16.9302 12.5926H15.3911C14.5411 12.5926 13.8521 13.2691 13.8521 14.1037V26.1926C13.8521 27.0272 14.5411 27.7037 15.3911 27.7037Z" fill="black" fill-opacity="0.5"/>
<path fill-rule="evenodd" clip-rule="evenodd" d="M29.3636 0C31.9243 0 34 2.07578 34 4.63636V29.3636C34 31.9243 31.9243 34 29.3636 34H4.63636C2.07578 34 0 31.9243 0 29.3636V4.63636C0 2.07578 2.07578 0 4.63636 0H29.3636ZM29.3636 3.09091C30.2172 3.09091 30.9091 3.78284 30.9091 4.63636V29.3636C30.9091 30.2172 30.2172 30.9091 29.3636 30.9091H4.63636C3.78284 30.9091 3.09091 30.2172 3.09091 29.3636V4.63636C3.09091 3.78284 3.78284 3.09091 4.63636 3.09091H29.3636Z" fill="black" fill-opacity="0.5"/>
</g>
<defs>
<clipPath id="clip0_739_212">
<rect width="34" height="34" fill="white"/>
</clipPath>
</defs>
</svg>
