<svg width="34" height="34" viewBox="0 0 34 34" fill="none" xmlns="http://www.w3.org/2000/svg">
<path d="M28.9181 4.93009C27.3593 3.36061 25.5038 2.11654 23.4598 1.27017C21.4155 0.423812 19.2233 -0.00790173 17.0106 0.000109485C14.0527 0.00299947 11.1472 0.782531 8.5855 2.26063C6.02376 3.73873 3.89561 5.86354 2.41411 8.42222C0.932608 10.9809 0.149821 13.8838 0.14408 16.8398C0.13836 19.7961 0.90992 22.7018 2.38149 25.2663L0 34L8.93058 31.6625C11.3966 33.0336 14.1675 33.7643 16.9894 33.7875C21.4753 33.7877 25.7796 32.017 28.9653 28.8609C32.1512 25.7051 33.9607 21.4192 34 16.9363C33.9851 14.6993 33.5284 12.4873 32.6564 10.427C31.7844 8.36676 30.5139 6.49876 28.9181 4.93009ZM17.0106 30.8763C14.4967 30.878 12.0287 30.2026 9.86617 28.9213L9.35585 28.6025L4.06129 30.005L5.46467 24.8413L5.12445 24.31C3.31548 21.3918 2.64035 17.9117 3.22696 14.5291C3.81357 11.1467 5.62118 8.09667 8.30735 5.95695C10.9935 3.81721 14.3716 2.73638 17.8018 2.91919C21.232 3.10198 24.4762 4.53573 26.9193 6.94883C29.59 9.55873 31.1188 13.1188 31.172 16.8513C31.1384 20.5826 29.6315 24.1496 26.9793 26.7763C24.3273 29.4028 20.7445 30.8765 17.0106 30.8763ZM24.6867 20.3788C24.2614 20.1663 22.1989 19.1463 21.8161 19.0188C21.4334 18.8913 21.1357 18.8063 20.8593 19.2313C20.4434 19.801 19.996 20.3471 19.5197 20.8676C19.2858 21.1651 19.0306 21.1863 18.6054 20.8676C16.1807 19.91 14.1607 18.1463 12.8856 15.8738C12.439 15.1301 13.3108 15.1726 14.1188 13.5788C14.1786 13.4639 14.2096 13.3364 14.2096 13.207C14.2096 13.0775 14.1786 12.95 14.1188 12.8351C14.1188 12.6226 13.162 10.5401 12.8218 9.71132C12.4816 8.88258 12.1413 9.01008 11.8649 8.98882H11.0356C10.8208 8.99212 10.6091 9.04123 10.4148 9.13284C10.2204 9.22444 10.0479 9.35647 9.90869 9.52007C9.43159 9.9837 9.05946 10.5442 8.81738 11.1636C8.57529 11.7831 8.46889 12.4472 8.50532 13.1113C8.63864 14.701 9.23769 16.2162 10.2276 17.4676C12.0397 20.1786 14.523 22.3748 17.4359 23.8425C18.9637 24.7338 20.7391 25.1065 22.4966 24.905C23.0817 24.789 23.6361 24.5512 24.1232 24.207C24.6106 23.8629 25.0199 23.4201 25.3246 22.9075C25.607 22.2819 25.6958 21.5864 25.5797 20.9101C25.3884 20.6976 25.1119 20.5913 24.6867 20.3788Z" fill="black" fill-opacity="0.5"/>
</svg>
