<svg width="34" height="34" viewBox="0 0 34 34" fill="none" xmlns="http://www.w3.org/2000/svg">
<g clip-path="url(#clip0_270_230)">
<path fill-rule="evenodd" clip-rule="evenodd" d="M13.453 10.1033C13.0146 9.85278 12.4759 9.85458 12.0391 10.108C11.6023 10.3615 11.3335 10.8283 11.3335 11.3333V22.6667C11.3335 23.1717 11.6023 23.6385 12.0391 23.8919C12.4759 24.1454 13.0146 24.1472 13.453 23.8966L23.3696 18.23C23.8111 17.9778 24.0835 17.5084 24.0835 17C24.0835 16.4916 23.8111 16.0222 23.3696 15.7701L13.453 10.1033ZM19.8114 17L14.1668 20.2255V13.7745L19.8114 17Z" fill="black" fill-opacity="0.5"/>
<path fill-rule="evenodd" clip-rule="evenodd" d="M0 17C0 11.6879 0 9.03182 1.3528 7.16985C1.78969 6.56852 2.31852 6.03969 2.91985 5.60279C4.78182 4.25 7.43788 4.25 12.75 4.25H21.25C26.5621 4.25 29.2182 4.25 31.0801 5.60279C31.6815 6.03969 32.2103 6.56852 32.6472 7.16985C34 9.03182 34 11.6879 34 17C34 22.3121 34 24.9682 32.6472 26.8301C32.2103 27.4315 31.6815 27.9603 31.0801 28.3972C29.2182 29.75 26.5621 29.75 21.25 29.75H12.75C7.43788 29.75 4.78182 29.75 2.91985 28.3972C2.31852 27.9603 1.78969 27.4315 1.3528 26.8301C0 24.9682 0 22.3121 0 17ZM12.75 7.08333H21.25C23.9691 7.08333 25.7809 7.08723 27.1537 7.23595C28.4734 7.37893 29.0473 7.62801 29.4148 7.89501C29.7755 8.15715 30.0928 8.47444 30.3551 8.83524C30.622 9.20274 30.871 9.7766 31.0141 11.0963C31.1628 12.469 31.1667 14.2808 31.1667 17C31.1667 19.7191 31.1628 21.5309 31.0141 22.9037C30.871 24.2234 30.622 24.7973 30.3551 25.1648C30.0928 25.5255 29.7755 25.8428 29.4148 26.1051C29.0473 26.372 28.4734 26.621 27.1537 26.7641C25.7809 26.9128 23.9691 26.9167 21.25 26.9167H12.75C10.0308 26.9167 8.21903 26.9128 6.84631 26.7641C5.5266 26.621 4.95274 26.372 4.58524 26.1051C4.22444 25.8428 3.90715 25.5255 3.64501 25.1648C3.37801 24.7973 3.12893 24.2234 2.98595 22.9037C2.83723 21.5309 2.83333 19.7191 2.83333 17C2.83333 14.2808 2.83723 12.469 2.98595 11.0963C3.12893 9.7766 3.37801 9.20274 3.64501 8.83524C3.90715 8.47444 4.22444 8.15715 4.58524 7.89501C4.95274 7.62801 5.5266 7.37893 6.84631 7.23595C8.21903 7.08723 10.0308 7.08333 12.75 7.08333Z" fill="black" fill-opacity="0.5"/>
</g>
<defs>
<clipPath id="clip0_270_230">
<rect width="34" height="34" fill="white"/>
</clipPath>
</defs>
</svg>
