<svg width="511" height="213" viewBox="0 0 511 213" fill="none" xmlns="http://www.w3.org/2000/svg">
<rect width="510.091" height="213" rx="20" fill="white" fill-opacity="0.45"/>
<path d="M397.227 94.1034C393.844 93.776 390.432 94.2174 387.236 95.3959C384.039 96.5745 381.138 98.4611 378.739 100.92C375.525 104.226 373.344 108.431 372.472 113.004C371.6 117.577 372.077 122.312 373.842 126.608C375.613 130.901 378.591 134.561 382.4 137.122C386.208 139.684 390.676 141.033 395.236 140.998C395.815 141.004 396.39 140.893 396.927 140.67C397.464 140.446 397.952 140.116 398.363 139.698C398.773 139.28 399.098 138.782 399.318 138.234C399.538 137.686 399.649 137.099 399.645 136.507C399.64 135.914 399.52 135.329 399.291 134.785C399.062 134.24 398.729 133.748 398.312 133.337C397.895 132.926 397.402 132.603 396.861 132.389C396.321 132.175 395.744 132.073 395.165 132.089C392.332 132.117 389.555 131.283 387.189 129.691C384.822 128.1 382.974 125.825 381.878 123.155C380.777 120.489 380.478 117.547 381.02 114.706C381.562 111.865 382.919 109.254 384.92 107.205C386.65 105.422 388.801 104.127 391.166 103.444C393.53 102.762 396.027 102.715 398.414 103.309C400.801 103.903 402.998 105.117 404.79 106.834C406.583 108.551 407.91 110.712 408.645 113.107H395.142C393.985 113.107 392.876 113.576 392.058 114.412C391.241 115.248 390.781 116.381 390.781 117.562C390.781 118.744 391.241 119.877 392.058 120.713C392.876 121.548 393.985 122.018 395.142 122.018H413.683C414.838 122.018 415.945 121.551 416.763 120.719C417.58 119.887 418.042 118.757 418.046 117.578C418.058 112.919 416.716 108.361 414.19 104.482C411.664 100.603 408.068 97.5777 403.857 95.7896C401.742 94.893 399.507 94.3253 397.227 94.1054V94.1034Z" fill="black"/>
<path d="M99.8183 138.399H93.0454V72.5611L93.6059 72H96.1282C97.6852 72 98.6817 72.4053 99.1176 73.2158C99.5847 73.9951 99.8183 75.1641 99.8183 76.7228V138.399ZM128.965 117.217C128.965 122.891 128.015 127.504 126.116 131.058C124.216 134.612 121.756 137.23 118.736 138.914C115.746 140.566 112.601 141.392 109.3 141.392C106.529 141.392 103.789 141.143 101.079 140.644C98.3703 140.114 95.6923 139.366 93.0454 138.399L96.5953 132.788C98.6194 133.942 100.612 134.783 102.574 135.313C104.536 135.812 106.762 136.061 109.254 136.061C111.527 136.061 113.629 135.391 115.559 134.051C117.49 132.71 119.031 130.653 120.184 127.878C121.367 125.073 121.958 121.535 121.958 117.264C121.958 111.185 120.946 106.821 118.922 104.171C116.929 101.49 114.625 100.15 112.009 100.15C109.176 100.15 106.482 101.054 103.929 102.862C101.406 104.67 99.4602 106.821 98.09 109.315L97.0157 103.142C97.7942 101.958 98.9308 100.664 100.425 99.2612C101.951 97.8584 103.773 96.6582 105.89 95.6607C108.039 94.6319 110.421 94.1176 113.037 94.1176C116.556 94.1176 119.483 95.0995 121.818 97.0635C124.185 99.0274 125.96 101.755 127.143 105.246C128.358 108.707 128.965 112.697 128.965 117.217Z" fill="black"/>
<path d="M149.558 140.737C149.122 140.831 148.608 140.893 148.016 140.925C147.425 140.987 146.802 141.018 146.148 141.018C145.463 141.018 144.825 140.987 144.233 140.925C143.641 140.893 143.128 140.831 142.692 140.737V104.639C142.692 102.924 142.411 101.739 141.851 101.085C141.29 100.43 140.278 100.103 138.815 100.103H137.927C137.74 99.1988 137.647 98.3416 137.647 97.5311C137.647 97.0946 137.663 96.6894 137.694 96.3153C137.756 95.91 137.834 95.458 137.927 94.9593C138.986 94.8034 139.905 94.7099 140.683 94.6787C141.493 94.6163 142.147 94.5852 142.645 94.5852H143.439C145.37 94.5852 146.864 95.1775 147.923 96.3621C149.013 97.5466 149.558 99.1833 149.558 101.272V140.737Z" fill="black"/>
<path d="M201.343 117.778C201.343 122.423 200.611 126.569 199.148 130.216C197.684 133.833 195.504 136.685 192.609 138.774C189.744 140.831 186.163 141.86 181.865 141.86C177.599 141.86 174.018 140.815 171.122 138.727C168.257 136.607 166.109 133.739 164.676 130.123C163.244 126.476 162.528 122.361 162.528 117.778C162.528 113.165 163.259 109.05 164.723 105.434C166.187 101.817 168.351 98.965 171.216 96.8764C174.08 94.7878 177.63 93.7435 181.865 93.7435C186.194 93.7435 189.79 94.7878 192.655 96.8764C195.551 98.965 197.715 101.817 199.148 105.434C200.611 109.05 201.343 113.165 201.343 117.778ZM169.674 117.778C169.674 120.864 170.048 123.841 170.795 126.709C171.574 129.546 172.85 131.884 174.625 133.723C176.432 135.532 178.876 136.436 181.959 136.436C185.042 136.436 187.47 135.532 189.245 133.723C191.02 131.884 192.282 129.546 193.029 126.709C193.776 123.841 194.15 120.864 194.15 117.778C194.15 114.723 193.776 111.762 193.029 108.894C192.282 106.026 191.02 103.672 189.245 101.833C187.47 99.9938 185.042 99.0741 181.959 99.0741C178.876 99.0741 176.432 99.9938 174.625 101.833C172.85 103.672 171.574 106.026 170.795 108.894C170.048 111.762 169.674 114.723 169.674 117.778Z" fill="black"/>
<path d="M217.65 94.024C219.798 94.024 221.34 94.7099 222.274 96.0815C223.208 97.422 223.675 99.2768 223.675 101.646V140.737C222.959 140.862 222.134 140.956 221.2 141.018C220.266 141.112 219.331 141.158 218.397 141.158C217.463 141.158 216.529 141.112 215.595 141.018C214.66 140.956 213.82 140.862 213.072 140.737V94.6787L213.68 94.024H217.65ZM238.295 111.653C238.295 108.535 237.828 106.353 236.894 105.106C235.991 103.828 234.699 103.189 233.017 103.189C231.522 103.22 229.919 103.735 228.206 104.732C226.493 105.699 224.905 106.977 223.442 108.566C222.009 110.156 220.904 111.902 220.125 113.804V103.75C221.496 101.88 223.053 100.181 224.796 98.6533C226.571 97.1258 228.455 95.91 230.448 95.006C232.472 94.102 234.543 93.65 236.661 93.65C239.37 93.65 241.643 94.289 243.48 95.5671C245.317 96.8452 246.687 98.591 247.59 100.804C248.494 102.986 248.945 105.449 248.945 108.192V140.737C248.198 140.862 247.357 140.956 246.423 141.018C245.489 141.112 244.57 141.158 243.667 141.158C242.733 141.158 241.799 141.112 240.864 141.018C239.93 140.956 239.074 140.862 238.295 140.737V111.653ZM263.565 111.559C263.565 108.442 263.082 106.275 262.117 105.059C261.183 103.813 259.891 103.189 258.24 103.189C256.808 103.189 255.251 103.672 253.569 104.639C251.888 105.605 250.3 106.914 248.805 108.566C247.31 110.187 246.08 112.027 245.115 114.084V102.815C246.61 101.132 248.276 99.6041 250.113 98.2325C251.95 96.8297 253.896 95.723 255.951 94.9125C258.007 94.0708 260.077 93.65 262.164 93.65C264.873 93.65 267.115 94.3046 268.89 95.6139C270.696 96.892 272.035 98.6377 272.907 100.851C273.779 103.064 274.215 105.558 274.215 108.333V130.497C274.215 132.149 274.324 133.723 274.542 135.22C274.791 136.716 275.242 138.01 275.896 139.101C275.118 139.756 274.137 140.301 272.954 140.737C271.801 141.174 270.571 141.392 269.264 141.392C267.177 141.392 265.698 140.831 264.826 139.709C263.985 138.555 263.565 136.872 263.565 134.659V111.559Z" fill="black"/>
<path d="M325.624 117.591C325.624 122.392 324.845 126.631 323.288 130.31C321.731 133.988 319.427 136.856 316.375 138.914C313.355 140.971 309.602 142 305.118 142C300.634 142 296.866 140.956 293.814 138.867C290.794 136.778 288.521 133.91 286.995 130.263C285.469 126.585 284.706 122.361 284.706 117.591C284.706 112.79 285.469 108.566 286.995 104.919C288.552 101.241 290.841 98.3727 293.861 96.3153C296.913 94.2578 300.665 93.2291 305.118 93.2291C309.633 93.2291 313.401 94.2734 316.422 96.3621C319.473 98.4195 321.762 101.272 323.288 104.919C324.845 108.566 325.624 112.79 325.624 117.591ZM295.636 117.591C295.636 120.428 295.901 123.093 296.43 125.587C296.96 128.05 297.909 130.061 299.279 131.619C300.681 133.147 302.643 133.91 305.165 133.91C307.687 133.91 309.633 133.147 311.004 131.619C312.374 130.061 313.323 128.05 313.853 125.587C314.382 123.093 314.647 120.428 314.647 117.591C314.647 114.754 314.382 112.105 313.853 109.642C313.323 107.148 312.374 105.122 311.004 103.563C309.633 102.004 307.687 101.225 305.165 101.225C302.643 101.225 300.681 102.004 299.279 103.563C297.909 105.122 296.96 107.148 296.43 109.642C295.901 112.105 295.636 114.754 295.636 117.591Z" fill="black"/>
<path d="M361.377 94.4449C362.062 94.289 362.731 94.1955 363.385 94.1643C364.07 94.102 364.724 94.0708 365.347 94.0708C366.312 94.0708 367.246 94.1332 368.149 94.2579C369.084 94.3825 369.956 94.5852 370.765 94.8657L371.045 95.3333C370.018 98.8871 368.866 102.753 367.589 106.93C366.312 111.107 365.02 115.3 363.712 119.508C362.404 123.686 361.159 127.629 359.975 131.339C358.823 135.017 357.811 138.15 356.939 140.737C355.756 140.925 354.479 141.049 353.109 141.112C351.77 141.205 350.462 141.252 349.185 141.252C347.099 141.252 345.495 140.909 344.374 140.223C343.253 139.506 342.319 137.947 341.572 135.547L328.96 95.2866C330.081 94.7878 331.156 94.4137 332.183 94.1643C333.211 93.8838 334.161 93.7435 335.033 93.7435C336.59 93.7435 337.835 94.0864 338.769 94.7722C339.735 95.458 340.451 96.6738 340.918 98.4195L346.757 118.339C347.224 119.804 347.66 121.379 348.064 123.062C348.5 124.745 348.89 126.335 349.232 127.832C349.575 129.328 349.839 130.559 350.026 131.526C350.12 131.869 350.213 132.087 350.306 132.18C350.431 132.243 350.633 132.274 350.914 132.274L361.377 94.4449Z" fill="black"/>
<path d="M145.048 93.3263C145.047 93.417 145.066 93.5062 145.104 93.5909C145.109 93.6016 145.119 93.6089 145.124 93.6189C145.159 93.6855 145.199 93.7495 145.258 93.8041C145.313 93.8548 145.378 93.8875 145.444 93.9181C145.46 93.926 145.473 93.9394 145.49 93.9467C145.579 93.9807 145.673 93.9994 145.769 93.9994L145.774 93.9987L149.347 93.998L149.5 94C150.132 94 153.4 93.8947 155.665 91.8039C158.172 89.4912 158.049 86.1155 158.043 86.0008V82.6684C158.043 82.3005 157.72 82.002 157.321 82.002L153.741 82.0027L153.588 82C152.956 82 149.689 82.106 147.423 84.1968C144.917 86.5095 145.042 89.8852 145.048 89.9999L145.048 93.3263ZM148.444 85.1391C150.307 83.4202 153.056 83.3329 153.588 83.3329L156.599 83.335L156.599 86.0269C156.6 86.0562 156.695 88.9695 154.644 90.8616C152.782 92.5805 150.032 92.6672 149.5 92.6672L147.512 92.6665L154.946 85.8056C155.228 85.545 155.228 85.1238 154.946 84.8632C154.663 84.6027 154.206 84.6026 153.925 84.8632L146.492 91.7234L146.491 89.9712C146.49 89.9425 146.382 87.0426 148.444 85.1391Z" fill="#308255"/>
<path d="M143.062 92.1399C143.179 92.1515 143.296 92.1398 143.41 92.1041C143.424 92.0993 143.435 92.0882 143.448 92.0833C143.538 92.0498 143.626 92.01 143.703 91.9458C143.774 91.8863 143.824 91.8126 143.871 91.7378C143.883 91.719 143.901 91.7059 143.913 91.6861C143.966 91.584 144.001 91.4734 144.011 91.3595L144.011 91.3526L144.403 87.0866L144.422 86.9049C144.492 86.1497 144.714 82.2351 142.259 79.2826C139.543 76.014 135.163 75.7596 135.014 75.7529L130.704 75.3564C130.228 75.3126 129.807 75.6624 129.763 76.1391L129.37 80.4137L129.35 80.5953C129.281 81.3505 129.059 85.2635 131.514 88.2177C134.23 91.4846 138.61 91.7372 138.759 91.7439L143.062 92.1399ZM132.845 87.1109C130.827 84.6821 131.016 81.3895 131.074 80.7542L131.407 77.1601L134.889 77.4797C134.927 77.4822 138.706 77.7161 140.928 80.3897C142.947 82.8169 142.757 86.111 142.698 86.7465L142.479 89.119L134.422 79.4277C134.115 79.0595 133.571 79.0094 133.203 79.3155C132.835 79.6217 132.784 80.1673 133.09 80.5346L137.119 85.3798L141.147 90.225L138.881 90.0174C138.843 90.0155 135.081 89.7988 132.845 87.1109Z" fill="#30B255"/>
<path d="M131.804 77.5815C131.804 78.2305 131.778 78.8757 131.871 79.5191C131.919 79.8473 131.939 80.1877 131.996 80.512C132.044 80.7789 132.086 81.0439 132.131 81.3121C132.2 81.7147 132.333 82.0882 132.454 82.4785C132.572 82.8573 132.773 83.2049 132.931 83.5677C133.092 83.9335 133.278 84.2878 133.452 84.6474C133.536 84.8211 133.613 85.0052 133.717 85.1679C133.807 85.3086 133.925 85.4279 134.016 85.568C134.222 85.8846 134.457 86.2591 134.753 86.4982C134.975 86.6767 135.216 86.8285 135.428 87.0187C135.681 87.2456 136.088 87.3575 136.402 87.4718C136.742 87.5956 137.047 87.7963 137.395 87.9056C137.575 87.9625 137.76 87.9748 137.944 88.0116C138.055 88.0338 138.153 88.0791 138.267 88.0791C138.441 88.0791 138.484 88.0819 138.484 87.8911C138.484 87.3461 138.492 86.8866 138.243 86.3825C137.995 85.8818 137.596 85.5149 137.144 85.1968C136.517 84.7554 135.87 84.371 135.11 84.2232C134.889 84.1802 134.591 84.1292 134.363 84.1799C134.212 84.2135 134.162 84.4903 134.103 84.6088C133.793 85.2281 134.005 86.1172 134.445 86.6235C134.836 87.0734 135.355 87.3627 135.881 87.626C136.392 87.8815 136.904 88.0488 137.462 88.1659C137.827 88.2424 138.505 88.3773 138.725 87.9538C139.044 87.3381 138.67 86.5125 138.339 85.9921C137.814 85.1646 136.98 84.5109 136.146 84.016C135.78 83.7988 135.39 83.6423 134.994 83.4906C134.867 83.4418 134.613 83.2949 134.464 83.3219C134.324 83.3474 134.406 84.2821 134.411 84.3871C134.44 85.0151 134.737 85.5717 135.081 86.0837C135.298 86.4062 135.566 86.6455 135.901 86.8452C135.961 86.8814 136.469 87.1558 136.556 87.1537C136.944 87.1443 136.97 86.5638 136.99 86.3536C137.053 85.6832 136.975 84.5386 136.903 83.8858C136.861 83.501 136.773 82.9123 136.633 82.5074C136.483 82.0745 136.416 82.5056 136.402 82.6857C136.341 83.4663 136.296 84.2481 136.228 85.0281C136.209 85.2452 136.172 85.458 136.146 85.674C136.145 85.6883 136.166 85.8926 136.209 85.7849C136.278 85.6132 136.228 85.3338 136.228 85.1583C136.228 84.687 136.25 84.2081 136.17 83.7413C136.062 83.0997 135.83 82.4511 135.582 81.8519C135.315 81.2036 134.965 80.6054 134.512 80.0685C134.399 79.9342 134.047 79.442 133.818 79.442C133.667 79.442 133.637 79.9604 133.626 80.03C133.444 81.118 133.312 82.1981 133.283 83.3026C133.269 83.8651 133.296 84.4364 133.37 84.9944C133.372 85.0094 133.427 85.2155 133.452 85.1342C133.533 84.8697 133.547 84.5534 133.582 84.2811C133.735 83.1122 133.905 81.8564 133.703 80.6855C133.651 80.3843 133.57 80.0918 133.457 79.8083C133.377 79.6082 133.348 79.8878 133.327 79.9625C133.246 80.2528 133.119 80.5274 133.018 80.8108C132.906 81.1241 132.825 81.4444 132.739 81.7651C132.579 82.3558 132.428 82.9607 132.343 83.5677C132.323 83.7138 132.299 84.1429 132.257 84.0015C132.172 83.7168 132.242 83.3396 132.237 83.0472C132.232 82.6951 132.196 82.3558 132.102 82.0158C132.022 81.721 131.963 82.0362 131.929 82.1748C131.814 82.6453 131.721 83.1306 131.635 83.6063C131.6 83.7988 131.616 84.0547 131.649 84.2425C131.701 84.531 131.758 84.8244 131.823 85.1101C131.883 85.3734 132.051 85.6006 132.194 85.8234C132.319 86.0174 132.502 86.1587 132.633 86.3488C132.796 86.5863 133.031 86.8388 133.279 86.9898C133.528 87.1423 133.836 87.2494 134.112 87.3417C134.683 87.5318 135.226 87.7452 135.775 87.9923C136.602 88.3645 137.433 88.6864 138.354 88.6864C138.576 88.6864 138.781 88.828 139.004 88.8599C139.33 88.9064 139.656 88.9843 139.978 89.0527C140.342 89.1301 140.689 89.2662 141.048 89.3612C141.139 89.3852 141.156 89.3835 141.048 89.3805C140.85 89.3748 140.657 89.3351 140.46 89.313C139.891 89.249 139.317 89.1281 138.744 89.1202C138.366 89.1149 137.985 89.1364 137.607 89.1154C136.839 89.0727 136.132 88.6543 135.423 88.3924C135.102 88.2735 134.491 88.1629 134.3 87.8188C134.265 87.756 134.236 87.6843 134.194 87.626C134.148 87.5613 134.011 87.4718 134.011 87.4718C134.011 87.4718 134.471 87.8936 134.676 88.1273C135.573 89.1465 137.109 89.3805 138.388 89.3805C139.236 89.3805 140.084 89.3805 140.932 89.3805C141.203 89.3805 141.59 89.4533 141.848 89.3612C142.067 89.2831 142.041 88.9703 142.041 88.7924C142.041 88.5096 142.077 88.2282 141.935 87.9731C141.808 87.746 141.691 87.5197 141.564 87.2935C141.441 87.0749 141.291 86.865 141.265 86.6091C141.235 86.3087 141.26 85.9948 141.26 85.6933C141.26 84.8964 141.15 84.0681 140.981 83.2882C140.918 83.0003 140.799 82.7237 140.72 82.4399C140.643 82.161 140.465 81.8517 140.301 81.6157C140.086 81.3065 139.782 81.0112 139.477 80.7915C139.104 80.5231 138.747 80.2377 138.359 79.9914C137.673 79.5571 137.005 79.1846 136.248 78.8829C135.808 78.7078 135.318 78.4946 134.84 78.4491C134.548 78.4212 134.243 78.2556 133.953 78.1888C133.589 78.1047 133.215 77.9285 132.84 77.9285C132.697 77.9285 132.396 77.8662 132.281 77.9816C132.084 78.1785 132.151 78.5483 132.151 78.7961C132.151 79.2995 132.267 79.7699 132.363 80.2613C132.442 80.6714 132.478 81.2008 132.305 81.5916C132.066 82.1318 131.408 82.4282 130.869 82.5941C130.559 82.6893 130.595 82.3247 130.589 82.1121C130.579 81.7304 130.462 81.4051 130.719 81.0903C130.833 80.9513 130.855 80.786 130.984 80.6566C131.274 80.3672 131.563 80.1939 131.929 80.0107C132.55 79.7001 133.279 79.2334 133.279 78.4491C133.279 78.1316 133.226 77.7612 133.283 77.4465C133.344 77.1104 133.733 77.1477 133.992 77.1477C134.352 77.1477 134.706 77.1597 135.057 77.2489C135.496 77.3605 135.896 77.5704 136.315 77.7357C136.524 77.8183 136.692 77.9082 136.874 78.0346C137.403 78.401 138.019 78.5419 138.6 78.7961C138.758 78.8652 138.947 78.951 139.072 79.0757C139.17 79.1733 139.219 79.314 139.303 79.4227C139.636 79.8507 139.948 80.2953 140.388 80.618C140.704 80.8498 140.945 81.2165 141.173 81.5338C141.482 81.9621 141.748 82.4312 142.036 82.8737C142.177 83.0893 142.337 83.322 142.422 83.5677C142.501 83.7961 142.494 84.0626 142.518 84.3004C142.555 84.6654 142.562 85.0235 142.562 85.3896C142.562 85.7276 142.474 85.9559 142.321 86.2572C142.13 86.6304 141.918 86.7766 141.52 86.9031C141.218 86.9992 140.821 87.0744 140.513 86.985C139.95 86.8216 139.155 86.4508 138.87 85.9102C138.596 85.3923 138.657 84.7186 138.657 84.1558C138.657 83.7991 138.657 83.4424 138.657 83.0858C138.657 82.8751 138.682 82.6447 138.619 82.4399C138.297 81.3991 137.196 80.8176 136.209 80.5794C136.147 80.5645 135.998 80.5017 135.929 80.5409C135.847 80.5878 135.813 80.8588 135.79 80.9313C135.636 81.4043 135.493 81.9359 135.814 82.3724C136.052 82.6965 136.386 82.9377 136.72 83.1532C137.342 83.5545 138.012 83.8706 138.677 84.1943C139.329 84.5123 139.992 84.8193 140.624 85.1776C140.729 85.2371 141.164 85.4308 141.164 85.6113C141.164 85.7867 141.029 86.0538 140.903 86.1656C140.483 86.5397 139.96 85.8964 139.718 85.6017C139.305 85.0998 138.919 84.5431 138.653 83.9485C138.495 83.5965 138.414 83.2114 138.315 82.8399C138.257 82.6227 138.224 82.4186 138.224 82.1941C138.224 82.1435 138.196 81.9801 138.243 81.9386C138.33 81.8616 138.851 82.4121 138.898 82.4592C139.095 82.6524 139.297 82.847 139.486 83.0472C139.627 83.1961 139.662 83.3429 139.742 83.5195C139.795 83.6358 139.785 83.7456 139.785 83.8714C139.785 84.039 139.913 84.0015 140.046 84.0015" stroke="#30B255" stroke-width="2" stroke-linecap="round"/>
<path d="M150.37 84.3482C150.285 84.4423 150.221 84.5512 150.138 84.6471C149.936 84.8813 149.691 85.0649 149.497 85.3074C149.315 85.5357 149.079 85.7052 148.895 85.9291C148.77 86.081 148.679 86.2556 148.591 86.4304C148.435 86.7432 148.317 87.055 148.201 87.3847C148.114 87.6302 147.973 87.8398 147.863 88.074C147.775 88.2628 147.706 88.4715 147.632 88.6668C147.579 88.8082 147.561 88.9591 147.507 89.1006C147.44 89.2725 147.348 89.4312 147.29 89.6067C147.134 90.0737 147.04 90.5594 146.861 91.0189C146.849 91.0497 146.707 91.4402 146.658 91.337C146.566 91.1416 146.567 90.8375 146.557 90.6285C146.539 90.2295 146.552 89.8276 146.552 89.4283C146.552 88.582 146.622 87.7838 146.861 86.9654C146.965 86.6098 147.087 86.1458 147.439 85.9484C147.796 85.7482 148.315 85.7457 148.712 85.6978C149.061 85.6556 149.413 85.6467 149.762 85.6014C150.097 85.5581 150.427 85.4852 150.765 85.4761C150.909 85.4722 150.809 85.5225 150.75 85.6255C150.573 85.9403 150.373 86.2457 150.158 86.5364C149.495 87.4325 148.657 88.1801 147.969 89.0524C147.921 89.1137 147.744 89.3034 147.719 89.3801C147.718 89.3832 147.804 89.4589 147.815 89.4621C147.882 89.4811 147.919 89.5121 147.979 89.5344C148.131 89.5905 148.346 89.4377 148.471 89.3753C149.225 88.9982 149.815 88.46 150.408 87.8667C150.903 87.3719 151.309 86.7724 151.845 86.3244C152.334 85.9151 152.925 85.7028 153.474 85.3893C153.661 85.2821 153.834 85.1494 154.033 85.0616C154.258 84.9621 154.489 84.8863 154.712 84.782C155.081 84.6099 155.471 84.487 155.835 84.3049C155.994 84.2256 156.253 84.1793 156.337 84.0012C156.399 83.8679 156.035 83.9145 155.97 83.9145C155.334 83.9145 154.686 83.8794 154.052 83.9337C153.412 83.9886 152.724 84.2101 152.163 84.5218C151.789 84.7294 151.497 85.0423 151.199 85.3411C150.923 85.6166 150.631 85.8616 150.543 86.2569C150.486 86.5151 150.437 86.7506 150.456 87.0184C150.469 87.1862 150.686 87.2225 150.818 87.2498C151.121 87.3121 151.45 87.3401 151.758 87.3655C152.314 87.4112 152.665 87.0115 152.707 86.4786C152.725 86.2523 152.645 86.094 152.558 85.8906C152.454 85.648 152.349 85.4101 152.235 85.1724C152.085 84.8601 151.957 84.5218 151.57 84.5218C151.354 84.5218 151.122 84.4984 150.91 84.541C150.871 84.5487 150.626 84.6875 150.688 84.5989C150.77 84.4818 150.913 84.4104 151.035 84.3434C151.333 84.179 151.658 84.0574 151.999 84.0205C152.759 83.9381 153.488 84.3813 154.1 84.782C154.219 84.8599 154.334 84.9688 154.467 85.023C154.528 85.0482 154.613 85.1107 154.674 85.1242C154.81 85.1544 154.95 85.0853 155.074 85.0423C155.267 84.9752 155.491 84.9338 155.696 84.9218C156.005 84.9036 155.922 85.4502 155.922 85.6303C155.922 85.7832 155.938 85.9465 155.913 86.0978C155.875 86.322 155.763 86.5297 155.749 86.7582C155.709 87.3697 155.473 87.8936 155.098 88.3873C154.876 88.6787 154.683 88.9965 154.467 89.2934C154.25 89.5896 154.026 89.83 153.773 90.0935C153.627 90.2447 153.516 90.4184 153.353 90.5562C152.985 90.8676 152.621 91.0892 152.187 91.2936C151.598 91.5707 151.02 91.835 150.37 91.9154C149.753 91.9916 149.181 92.22 148.567 92.3106C148.424 92.3316 147.878 92.5594 147.96 92.2431C148.017 92.0199 148.201 91.8063 148.341 91.631C148.591 91.3162 148.879 91.0191 149.194 90.7683C149.495 90.5281 149.83 90.3374 150.148 90.1224C150.797 89.684 151.42 89.2036 152.028 88.7102C152.608 88.2396 153.152 87.7339 153.666 87.1919C153.985 86.8557 154.273 86.4885 154.621 86.1798C154.95 85.8869 155.339 85.6938 155.662 85.3893C155.778 85.2801 155.754 85.4495 155.734 85.5339C155.652 85.8751 155.355 86.1661 155.141 86.4304C154.6 87.1011 153.949 87.7028 153.319 88.2909C152.769 88.8058 152.255 89.3795 151.632 89.8091C151.255 90.0697 150.803 90.3152 150.509 90.6767C150.39 90.824 150.265 91.053 150.558 91.0237C150.783 91.0012 150.993 90.9192 151.208 90.855C151.634 90.7283 152.069 90.6486 152.49 90.508C153.183 90.2771 153.855 89.9639 154.38 89.4476C154.802 89.0324 155.257 88.6881 155.739 88.3439C155.886 88.2386 155.972 88.116 156.096 87.992C156.15 87.9373 156.226 87.8867 156.308 87.9101C156.515 87.9692 156.231 88.5246 156.182 88.5993C155.845 89.1203 155.483 89.5708 155.006 89.9682C154.748 90.1832 154.483 90.3712 154.187 90.5273C154.069 90.5893 153.96 90.6649 153.84 90.7249C153.8 90.7447 153.721 90.7833 153.681 90.8068C153.567 90.8733 153.666 90.8228 153.666 90.855" stroke="#308255" stroke-width="2" stroke-linecap="round"/>
</svg>
