<svg width="511" height="213" viewBox="0 0 511 213" fill="none" xmlns="http://www.w3.org/2000/svg">
<rect width="510.091" height="213" rx="20" fill="white" fill-opacity="0.45"/>
<path d="M197.986 102.627C197.425 101.599 196.654 100.817 195.673 100.28C194.692 99.7427 193.548 99.4741 192.24 99.4741C190.792 99.4741 189.508 99.8011 188.387 100.455C187.266 101.109 186.39 102.043 185.759 103.258C185.129 104.472 184.813 105.873 184.813 107.462C184.813 109.096 185.129 110.521 185.759 111.736C186.413 112.95 187.312 113.884 188.457 114.538C189.601 115.192 190.932 115.519 192.45 115.519C194.319 115.519 195.849 115.029 197.04 114.048C198.231 113.043 199.013 111.654 199.387 109.879H190.979V106.13H204.221V110.404C203.894 112.109 203.194 113.686 202.119 115.134C201.045 116.582 199.655 117.75 197.951 118.637C196.269 119.501 194.377 119.933 192.275 119.933C189.916 119.933 187.779 119.408 185.864 118.357C183.972 117.282 182.478 115.799 181.38 113.908C180.306 112.016 179.769 109.867 179.769 107.462C179.769 105.056 180.306 102.907 181.38 101.016C182.478 99.1004 183.972 97.6174 185.864 96.5664C187.779 95.4921 189.905 94.9549 192.24 94.9549C194.996 94.9549 197.39 95.6322 199.422 96.9868C201.454 98.318 202.855 100.198 203.626 102.627H197.986Z" fill="#074822"/>
<path d="M216.468 120.038C214.6 120.038 212.918 119.63 211.423 118.812C209.929 117.971 208.749 116.792 207.885 115.274C207.044 113.756 206.624 112.004 206.624 110.019C206.624 108.034 207.056 106.282 207.92 104.764C208.808 103.246 210.01 102.078 211.528 101.261C213.046 100.42 214.74 99.9996 216.608 99.9996C218.477 99.9996 220.17 100.42 221.688 101.261C223.206 102.078 224.397 103.246 225.261 104.764C226.149 106.282 226.592 108.034 226.592 110.019C226.592 112.004 226.137 113.756 225.226 115.274C224.339 116.792 223.124 117.971 221.583 118.812C220.065 119.63 218.36 120.038 216.468 120.038ZM216.468 115.764C217.356 115.764 218.185 115.554 218.955 115.134C219.749 114.69 220.38 114.036 220.847 113.172C221.314 112.308 221.548 111.257 221.548 110.019C221.548 108.174 221.057 106.761 220.076 105.78C219.119 104.776 217.939 104.274 216.538 104.274C215.137 104.274 213.957 104.776 213 105.78C212.066 106.761 211.598 108.174 211.598 110.019C211.598 111.864 212.054 113.289 212.965 114.293C213.899 115.274 215.067 115.764 216.468 115.764Z" fill="#074822"/>
<path d="M238.808 120.038C236.94 120.038 235.258 119.63 233.763 118.812C232.269 117.971 231.089 116.792 230.225 115.274C229.384 113.756 228.964 112.004 228.964 110.019C228.964 108.034 229.396 106.282 230.26 104.764C231.148 103.246 232.351 102.078 233.869 101.261C235.387 100.42 237.08 99.9996 238.948 99.9996C240.817 99.9996 242.51 100.42 244.028 101.261C245.546 102.078 246.737 103.246 247.601 104.764C248.489 106.282 248.933 108.034 248.933 110.019C248.933 112.004 248.477 113.756 247.566 115.274C246.679 116.792 245.464 117.971 243.923 118.812C242.405 119.63 240.7 120.038 238.808 120.038ZM238.808 115.764C239.696 115.764 240.525 115.554 241.296 115.134C242.09 114.69 242.72 114.036 243.187 113.172C243.654 112.308 243.888 111.257 243.888 110.019C243.888 108.174 243.397 106.761 242.417 105.78C241.459 104.776 240.28 104.274 238.878 104.274C237.477 104.274 236.298 104.776 235.34 105.78C234.406 106.761 233.939 108.174 233.939 110.019C233.939 111.864 234.394 113.289 235.305 114.293C236.239 115.274 237.407 115.764 238.808 115.764Z" fill="#074822"/>
<path d="M251.269 109.949C251.269 107.987 251.655 106.247 252.425 104.729C253.219 103.211 254.294 102.043 255.648 101.226C257.003 100.408 258.509 99.9996 260.167 99.9996C261.429 99.9996 262.631 100.28 263.776 100.84C264.92 101.378 265.831 102.102 266.508 103.012V93.7988H271.483V119.723H266.508V116.85C265.901 117.808 265.049 118.579 263.951 119.162C262.853 119.746 261.58 120.038 260.132 120.038C258.498 120.038 257.003 119.618 255.648 118.777C254.294 117.936 253.219 116.757 252.425 115.239C251.655 113.697 251.269 111.934 251.269 109.949ZM266.543 110.019C266.543 108.828 266.31 107.812 265.843 106.971C265.376 106.107 264.745 105.453 263.951 105.009C263.157 104.542 262.304 104.309 261.394 104.309C260.483 104.309 259.642 104.531 258.871 104.974C258.101 105.418 257.47 106.072 256.979 106.936C256.512 107.777 256.279 108.781 256.279 109.949C256.279 111.117 256.512 112.144 256.979 113.032C257.47 113.896 258.101 114.562 258.871 115.029C259.665 115.496 260.506 115.729 261.394 115.729C262.304 115.729 263.157 115.507 263.951 115.064C264.745 114.597 265.376 113.943 265.843 113.102C266.31 112.238 266.543 111.21 266.543 110.019Z" fill="#074822"/>
<path d="M303.433 119.723L300.771 117.096C298.505 119.127 295.738 120.143 292.468 120.143C290.67 120.143 289.082 119.84 287.704 119.233C286.349 118.602 285.298 117.726 284.551 116.605C283.803 115.461 283.43 114.141 283.43 112.646C283.43 111.035 283.885 109.587 284.796 108.302C285.707 107.018 287.05 105.979 288.825 105.184C288.194 104.414 287.739 103.678 287.458 102.977C287.178 102.253 287.038 101.483 287.038 100.665C287.038 99.5442 287.33 98.5399 287.914 97.6524C288.498 96.7416 289.327 96.0292 290.401 95.5154C291.499 95.0016 292.772 94.7447 294.22 94.7447C295.691 94.7447 296.952 95.025 298.003 95.5855C299.054 96.146 299.837 96.8934 300.35 97.8276C300.864 98.7618 301.086 99.8011 301.016 100.945H296.252C296.275 100.175 296.088 99.5909 295.691 99.1939C295.294 98.7735 294.757 98.5633 294.08 98.5633C293.426 98.5633 292.877 98.7618 292.433 99.1588C292.013 99.5325 291.803 100.023 291.803 100.63C291.803 101.214 291.978 101.798 292.328 102.382C292.678 102.942 293.251 103.643 294.045 104.484L300.21 110.579C300.257 110.533 300.292 110.486 300.315 110.439C300.339 110.393 300.362 110.346 300.386 110.299L302.382 106.971H307.497L305.045 111.28C304.578 112.191 304.076 113.055 303.538 113.873L309.459 119.723H303.433ZM292.608 116.08C294.523 116.08 296.217 115.402 297.688 114.048L291.662 108.092C289.397 109.096 288.264 110.521 288.264 112.366C288.264 113.417 288.661 114.305 289.455 115.029C290.249 115.729 291.3 116.08 292.608 116.08Z" fill="#074822"/>
<path d="M340.519 95.2702V119.723H335.614V109.318H325.14V119.723H320.235V95.2702H325.14V105.325H335.614V95.2702H340.519Z" fill="#074822"/>
<path d="M363.388 109.599C363.388 110.299 363.342 110.93 363.248 111.49H349.06C349.177 112.892 349.667 113.989 350.531 114.783C351.395 115.577 352.458 115.975 353.719 115.975C355.541 115.975 356.837 115.192 357.608 113.627H362.898C362.337 115.496 361.263 117.037 359.675 118.252C358.087 119.443 356.136 120.038 353.824 120.038C351.956 120.038 350.274 119.63 348.78 118.812C347.308 117.971 346.152 116.792 345.311 115.274C344.494 113.756 344.085 112.004 344.085 110.019C344.085 108.01 344.494 106.247 345.311 104.729C346.129 103.211 347.273 102.043 348.745 101.226C350.216 100.408 351.909 99.9996 353.824 99.9996C355.669 99.9996 357.316 100.397 358.764 101.191C360.235 101.985 361.368 103.118 362.162 104.589C362.98 106.037 363.388 107.707 363.388 109.599ZM358.309 108.197C358.285 106.936 357.83 105.932 356.942 105.184C356.055 104.414 354.969 104.028 353.684 104.028C352.47 104.028 351.442 104.402 350.601 105.149C349.784 105.873 349.282 106.889 349.095 108.197H358.309Z" fill="#074822"/>
<path d="M365.707 109.949C365.707 107.987 366.092 106.247 366.863 104.729C367.657 103.211 368.72 102.043 370.051 101.226C371.406 100.408 372.912 99.9996 374.57 99.9996C376.018 99.9996 377.279 100.292 378.354 100.875C379.451 101.459 380.327 102.195 380.981 103.082V100.315H385.921V119.723H380.981V116.885C380.351 117.796 379.475 118.555 378.354 119.162C377.256 119.746 375.983 120.038 374.535 120.038C372.9 120.038 371.406 119.618 370.051 118.777C368.72 117.936 367.657 116.757 366.863 115.239C366.092 113.697 365.707 111.934 365.707 109.949ZM380.981 110.019C380.981 108.828 380.748 107.812 380.281 106.971C379.813 106.107 379.183 105.453 378.389 105.009C377.595 104.542 376.742 104.309 375.831 104.309C374.921 104.309 374.08 104.531 373.309 104.974C372.538 105.418 371.908 106.072 371.417 106.936C370.95 107.777 370.717 108.781 370.717 109.949C370.717 111.117 370.95 112.144 371.417 113.032C371.908 113.896 372.538 114.562 373.309 115.029C374.103 115.496 374.944 115.729 375.831 115.729C376.742 115.729 377.595 115.507 378.389 115.064C379.183 114.597 379.813 113.943 380.281 113.102C380.748 112.238 380.981 111.21 380.981 110.019Z" fill="#074822"/>
<path d="M395.616 93.7988V119.723H390.711V93.7988H395.616Z" fill="#074822"/>
<path d="M406.172 104.344V113.732C406.172 114.386 406.323 114.865 406.627 115.169C406.954 115.449 407.491 115.589 408.239 115.589H410.516V119.723H407.433C403.299 119.723 401.232 117.714 401.232 113.697V104.344H398.92V100.315H401.232V95.5154H406.172V100.315H410.516V104.344H406.172Z" fill="#074822"/>
<path d="M424.974 100.035C426.445 100.035 427.753 100.362 428.897 101.016C430.042 101.646 430.929 102.592 431.56 103.853C432.214 105.091 432.541 106.586 432.541 108.337V119.723H427.636V109.003C427.636 107.462 427.251 106.282 426.48 105.465C425.709 104.624 424.658 104.204 423.327 104.204C421.972 104.204 420.898 104.624 420.104 105.465C419.333 106.282 418.948 107.462 418.948 109.003V119.723H414.043V93.7988H418.948V102.732C419.578 101.891 420.419 101.237 421.47 100.77C422.521 100.28 423.689 100.035 424.974 100.035Z" fill="#074822"/>
<path d="M455.772 100.315L443.756 128.902H438.536L442.74 119.233L434.962 100.315H440.463L445.472 113.873L450.552 100.315H455.772Z" fill="#074822"/>
<path d="M137.896 99.3837C137.347 116.705 120.882 129.264 112.718 133.379C124.572 121.721 130.45 111.826 130.352 99.3837C130.274 89.43 124.18 79.104 121.143 75.1852C121.927 74.3231 126.891 71.2338 129.275 69.7969C137.661 83.5126 138.516 95.2363 137.896 99.3837Z" fill="#730064"/>
<path d="M96.8472 100.363C97.004 85.7856 108.93 72.6707 114.874 67.9355C128.276 81.2594 130.712 95.1058 130.255 100.363C131.43 112.825 119.054 127.566 112.718 133.379C111.151 132.008 96.6513 118.586 96.8472 100.363Z" fill="#59AD50"/>
<path d="M151.654 116.544C142.518 131.27 121.979 133.914 112.851 133.396C128.946 129.227 138.985 123.596 145.121 112.772C150.03 104.113 149.915 92.1235 149.245 87.2112C150.354 86.8564 156.198 86.6629 158.981 86.6105C159.386 102.682 154.265 113.263 151.654 116.544Z" fill="#59AD50"/>
<path d="M115.613 96.8674C123.038 84.3209 139.924 78.9262 147.438 77.7972C152.383 96.0371 147.57 109.246 144.545 113.571C139.332 124.951 121.243 131.529 112.85 133.395C112.178 131.424 106.332 112.55 115.613 96.8674Z" fill="#074822"/>
<path d="M106.584 91.6985C118.443 104.334 115.682 124.858 112.818 133.541C112.957 116.915 110.117 105.761 101.249 97.0327C94.1556 90.0497 82.5451 87.0571 77.6266 86.4336C77.5712 85.2698 78.8966 79.5754 79.5663 76.8737C95.1947 80.6422 104.09 88.3271 106.584 91.6985Z" fill="#730064"/>
<path d="M78.251 121.417C68.0537 110.998 67.2132 93.2915 68.0676 85.7405C86.9658 85.6851 98.4793 93.7533 101.874 97.7944C111.517 105.775 113.189 124.95 112.819 133.54C110.741 133.679 90.9976 134.441 78.251 121.417Z" fill="#074822" stroke="#074822"/>
<path d="M162.005 106.917C162.005 110.959 160.718 114.96 158.218 118.694C155.717 122.428 152.053 125.821 147.433 128.678C142.813 131.536 137.328 133.803 131.292 135.35C125.255 136.896 118.786 137.692 112.252 137.692C105.718 137.692 99.2487 136.896 93.2124 135.35C87.1761 133.803 81.6913 131.536 77.0713 128.678C72.4513 125.821 68.7866 122.428 66.2862 118.694C63.7859 114.96 62.499 110.959 62.499 106.917L112.252 106.917H162.005Z" fill="#C5C5C5"/>
</svg>
