<svg width="511" height="213" viewBox="0 0 511 213" fill="none" xmlns="http://www.w3.org/2000/svg">
<rect width="510.091" height="213" rx="20" fill="white" fill-opacity="0.45"/>
<path d="M193.227 142.013H182.13V98.4772H184.813L188.869 102.705C190.657 101.079 192.279 99.8322 194.528 98.965C196.804 98.0707 199.176 97.6235 201.642 97.6235C204.297 97.6235 206.804 98.1384 209.162 99.1682C211.148 100.013 212.923 101.137 214.487 102.54C214.779 102.802 215.063 103.074 215.34 103.355C217.102 105.117 218.484 107.19 219.487 109.574C220.516 111.932 221.031 114.452 221.031 117.135V142.013H209.934V117.135C209.934 115.997 209.717 114.927 209.284 113.924C208.85 112.894 208.254 112 207.495 111.241C206.736 110.482 205.856 109.886 204.853 109.453C203.85 109.019 202.78 108.802 201.642 108.802C200.476 108.802 199.379 109.019 198.349 109.453C197.319 109.886 196.425 110.482 195.666 111.241C194.907 112 194.311 112.894 193.878 113.924C193.444 114.927 193.227 115.997 193.227 117.135V142.013Z" fill="#F68300"/>
<path d="M242.047 86.6482C242.047 87.678 241.844 88.64 241.437 89.5343C241.058 90.4286 240.53 91.2145 239.852 91.892C239.175 92.5424 238.375 93.0708 237.454 93.4773C236.559 93.8567 235.597 94.0464 234.568 94.0464C233.538 94.0464 232.562 93.8567 231.641 93.4773C230.747 93.0708 229.961 92.5424 229.283 91.892C228.633 91.2145 228.104 90.4286 227.698 89.5343C227.318 88.64 227.129 87.678 227.129 86.6482C227.129 85.6455 227.318 84.697 227.698 83.8027C228.104 82.8813 228.633 82.0955 229.283 81.4451C229.961 80.7676 230.747 80.2391 231.641 79.8597C232.562 79.4532 233.538 79.25 234.568 79.25C235.597 79.25 236.559 79.4532 237.454 79.8597C238.375 80.2391 239.175 80.7676 239.852 81.4451C240.53 82.0955 241.058 82.8813 241.437 83.8027C241.844 84.697 242.047 85.6455 242.047 86.6482ZM240.137 142.013H228.958V98.4772H240.137V142.013Z" fill="#F68300"/>
<path d="M305.809 142.415H294.183V100.79C294.183 99.9767 294.02 99.2179 293.695 98.5133C293.397 97.8087 292.977 97.199 292.435 96.6841C291.92 96.1421 291.31 95.722 290.606 95.424C289.901 95.1259 289.142 94.9768 288.329 94.9768C287.516 94.9768 286.758 95.1259 286.053 95.424C285.349 95.722 284.725 96.1421 284.183 96.6841C283.668 97.199 283.262 97.8087 282.964 98.5133C282.666 99.2179 282.517 99.9767 282.517 100.79V142.415H270.85V100.79C270.85 99.9767 270.701 99.2179 270.403 98.5133C270.105 97.8087 269.685 97.199 269.143 96.6841C268.628 96.1421 268.018 95.722 267.314 95.424C266.609 95.1259 265.85 94.9768 265.037 94.9768C264.224 94.9768 263.466 95.1259 262.761 95.424C262.056 95.722 261.433 96.1421 260.891 96.6841C260.376 97.199 259.97 97.8087 259.672 98.5133C259.374 99.2179 259.224 99.9767 259.224 100.79V142.415H247.558V100.79C247.558 98.3778 248.005 96.115 248.9 94.0012C249.821 91.8604 251.068 90.004 252.639 88.4323C254.238 86.8334 256.094 85.5868 258.208 84.6925C260.349 83.7711 262.625 83.3104 265.037 83.3104C267.205 83.3104 269.292 83.7034 271.297 84.4893C273.303 85.248 275.105 86.3591 276.704 87.8225C278.303 86.3591 280.091 85.248 282.069 84.4893C284.075 83.7034 286.162 83.3104 288.329 83.3104C290.741 83.3104 293.004 83.7711 295.118 84.6925C297.259 85.5868 299.115 86.8334 300.687 88.4323C302.286 90.004 303.532 91.8604 304.427 94.0012C305.348 96.115 305.809 98.3778 305.809 100.79V142.415Z" fill="#1C8CE3"/>
<path d="M376.417 142.415H365.238V81.5625H376.417V142.415Z" fill="#1C8CE3"/>
<path d="M396.091 142.415H384.912V81.5625H396.091V142.415Z" fill="#1C8CE3"/>
<path d="M359.303 142.021H356.807L351.755 135.863C350.614 136.841 349.399 137.762 348.112 138.628C346.854 139.466 345.523 140.206 344.118 140.848C342.714 141.463 341.266 141.951 339.773 142.315C338.311 142.678 336.818 142.859 335.297 142.859C331.991 142.859 328.875 142.328 325.949 141.267C323.052 140.206 320.609 137.962 318.415 135.952C316.25 133.913 314.491 132.12 312.173 128.802C309.677 125.227 308.428 123.123 308.428 119.381C308.428 115.89 312.417 109.988 313.422 108.545C315.65 105.343 315.918 105.082 318.313 102.056C320.507 99.9614 323.052 98.3415 325.949 97.1965C328.875 96.0235 331.991 95.437 335.297 95.437C336.818 95.437 338.325 95.6185 339.817 95.9816C341.309 96.3447 342.758 96.8474 344.162 97.4897C345.567 98.1321 346.898 98.8861 348.156 99.7519C349.443 100.618 350.643 101.553 351.755 102.559L356.807 97.2384H359.303V142.021ZM347.234 119.19C347.234 117.626 346.912 116.118 346.269 114.666C345.654 113.185 344.464 112.045 343.382 110.928C342.299 109.783 340.793 108.861 339.33 108.191C337.896 107.493 337.223 108.191 335.585 108.191C333.946 108.191 333.303 107.66 331.84 108.191C330.406 108.722 329.177 109.541 328.095 110.574C327.041 111.607 327.697 112.846 325.905 114.503C324.113 116.16 323.815 119.19 324.35 120.461C324.884 121.731 323.967 123.324 325.905 125.227C328.375 127.652 328.095 128.448 328.095 128.448C329.343 129.64 330.406 130.301 331.84 130.831C333.303 131.362 333.658 131.381 335.297 131.381C336.935 131.381 338.471 131.045 339.905 130.375C341.368 129.677 342.641 128.769 343.723 127.652C344.806 126.507 345.654 125.208 346.269 123.756C346.912 122.276 347.234 120.754 347.234 119.19Z" fill="#1C8CE3"/>
<path d="M155.347 114.652C157.004 114.652 158.347 113.309 158.347 111.652V99.9529C158.347 97.9384 157.96 96.0433 157.188 94.2678C156.448 92.4581 155.423 90.8874 154.113 89.5558C152.802 88.2241 151.257 87.1827 149.476 86.4315C147.728 85.6462 145.864 85.2535 143.881 85.2535C141.899 85.2535 140.017 85.6462 138.236 86.4315C136.489 87.1827 134.96 88.2241 133.649 89.5558C132.339 90.8874 131.297 92.4581 130.524 94.2678C129.785 96.0433 129.415 97.9384 129.415 99.9529V111.652C129.415 113.309 130.758 114.652 132.415 114.652H155.347ZM172.813 140.826C172.813 142.281 171.278 143.225 169.98 142.569C169.349 142.25 168.595 142.297 168.009 142.692L167.513 143.026C166.621 143.628 165.473 143.699 164.512 143.214L163.13 142.516C162.554 142.224 161.873 142.224 161.297 142.514C159.944 143.196 158.347 142.212 158.347 140.697V132.301C158.347 130.644 157.004 129.301 155.347 129.301H132.415C130.758 129.301 129.415 130.644 129.415 132.301V140.783C129.415 142.255 127.861 143.207 126.55 142.538C125.957 142.235 125.251 142.253 124.673 142.584L123.71 143.137C122.78 143.671 121.637 143.668 120.71 143.13L119.788 142.595C119.206 142.257 118.491 142.236 117.89 142.54C116.565 143.209 115 142.246 115 140.762V99.9529C115 95.8897 115.756 92.0825 117.268 88.5314C118.78 84.9462 116.551 73.3198 119.139 70.6565C121.76 67.9932 129.096 74.3954 132.591 72.8588C136.119 71.3223 139.882 70.5541 143.881 70.5541C147.88 70.5541 151.626 71.3223 155.121 72.8588C158.649 74.3954 166.697 67.9932 169.318 70.6565C171.939 73.3198 169.032 84.9462 170.544 88.5314C172.056 92.0825 172.813 95.8897 172.813 99.9529V140.826Z" fill="#F68300"/>
</svg>
