<svg width="511" height="213" viewBox="0 0 511 213" fill="none" xmlns="http://www.w3.org/2000/svg">
<rect width="510.091" height="213" rx="20" fill="white" fill-opacity="0.45"/>
<path d="M92.2811 53.7878L92.2811 101.587C93.3593 99.272 94.7071 96.8207 96.3245 94.2333C97.9419 91.5097 99.8288 89.0585 101.985 86.8796C104.142 84.5645 106.635 82.7261 109.466 81.3643C112.296 79.8663 115.396 79.1173 118.766 79.1173L118.766 94.6418C115.666 94.0971 112.566 93.9609 109.466 94.2333C106.905 94.5057 104.209 95.1866 101.379 96.276C98.5484 97.3654 96.0549 99.272 93.8985 101.996C93.6289 102.268 93.3593 102.676 93.0898 103.221C92.8202 103.63 92.5506 104.106 92.2811 104.651L92.2811 135.087L102.592 135.087C105.422 135.087 108.253 134.27 111.083 132.636C114.048 131.002 116.744 129.163 119.17 127.121C121.865 124.942 124.494 122.354 127.055 119.359L127.055 137.334L67.8184 137.334C68.3575 136.926 68.8292 136.449 69.2336 135.904C69.5031 135.223 69.7727 134.474 70.0422 133.657C70.3118 132.84 70.4466 131.887 70.4466 130.798L70.4466 58.2818C70.4466 57.0562 70.3118 56.0348 70.0422 55.2177C69.7727 54.4007 69.5031 53.7198 69.2336 53.175C68.8292 52.6303 68.3575 52.1537 67.8184 51.7451L109.466 51.7451C109.466 51.7451 116.339 52.7957 120.672 55.7138C125.004 58.632 127.055 69.7209 127.055 69.7209C124.494 66.7249 120.672 65.9273 117.784 65.9273C114.895 65.9273 112.007 64.6654 108.426 60.5579C106.637 58.5062 106.231 57.1729 104.787 55.7138C104.787 54.2548 102.817 54.2548 101.899 54.2548L92.2811 53.7878Z" fill="#2D3319"/>
<path d="M162.127 138.356C157.679 138.356 153.568 137.675 149.794 136.313C146.02 134.815 142.718 132.772 139.888 130.185C137.192 127.461 135.036 124.261 133.418 120.584C131.936 116.907 131.194 112.822 131.194 108.328C131.194 102.064 132.34 97.025 134.631 93.212C136.923 89.2627 139.618 86.2668 142.718 84.2241C145.953 82.0452 149.188 80.6153 152.422 79.9344C155.792 79.1173 158.487 78.7088 160.509 78.7088C163.474 78.7088 166.305 78.9131 169 79.3216C171.831 79.594 174.324 80.0025 176.481 80.5472C179.042 81.0919 181.468 81.7047 183.759 82.3856L183.759 99.3401C181.198 95.3908 178.502 91.9863 175.672 89.1266C173.381 86.6753 170.752 84.5645 167.787 82.7942C164.822 80.8877 161.924 80.2749 159.094 80.9558C156.264 81.6367 154.309 83.407 153.231 86.2668C152.288 89.1266 151.748 92.1906 151.614 95.4589C151.479 99.4081 151.816 103.698 152.624 108.328C153.703 112.55 155.185 116.226 157.072 119.359C158.824 122.082 161.116 124.465 163.946 126.508C166.776 128.551 170.348 129.232 174.661 128.551C176.144 128.278 177.424 127.802 178.502 127.121C179.715 126.304 180.794 125.487 181.737 124.67C182.681 123.716 183.624 122.627 184.568 121.401C183.759 124.533 182.411 127.325 180.524 129.776C178.907 131.955 176.615 133.93 173.65 135.7C170.82 137.47 166.979 138.356 162.127 138.356Z" fill="#2D3319"/>
<path d="M219.579 78.9131C223.892 78.9131 227.868 79.7301 231.508 81.3643C235.281 82.8623 238.584 84.9731 241.414 87.6967C244.244 90.2841 246.468 93.4162 248.086 97.0931C249.703 100.77 250.512 104.651 250.512 108.736C250.512 112.822 249.703 116.703 248.086 120.38C246.468 124.057 244.244 127.257 241.414 129.981C238.584 132.568 235.281 134.679 231.508 136.313C227.868 137.811 223.892 138.56 219.579 138.56C215.266 138.56 211.223 137.811 207.449 136.313C203.675 134.679 200.373 132.568 197.543 129.981C194.847 127.257 192.691 124.057 191.073 120.38C189.456 116.703 188.647 112.822 188.647 108.736C188.647 104.651 189.456 100.77 191.073 97.0931C192.691 93.4162 194.847 90.2841 197.543 87.6967C200.373 84.9731 203.675 82.8623 207.449 81.3643C211.223 79.7301 215.266 78.9131 219.579 78.9131ZM224.634 135.7C226.116 135.428 227.329 134.474 228.273 132.84C229.351 131.206 230.092 129.095 230.497 126.508C231.036 123.784 231.238 120.72 231.103 117.316C231.103 113.911 230.766 110.303 230.092 106.49C229.418 102.813 228.475 99.4081 227.262 96.276C226.049 93.0077 224.701 90.2841 223.219 88.1052C221.871 85.7901 220.388 84.0879 218.771 82.9985C217.288 81.7728 215.806 81.2962 214.323 81.5686C212.975 81.8409 211.762 82.7942 210.684 84.4283C209.74 86.0625 208.999 88.2414 208.46 90.965C208.056 93.5524 207.854 96.5484 207.854 99.9529C207.988 103.357 208.393 106.898 209.067 110.575C209.74 114.388 210.684 117.929 211.897 121.197C213.11 124.329 214.39 127.053 215.738 129.368C217.221 131.547 218.703 133.249 220.186 134.474C221.803 135.564 223.286 135.972 224.634 135.7Z" fill="#2D3319"/>
<path d="M254.792 72.785C254.792 70.6061 255.129 68.2229 255.803 65.6355C256.612 63.0481 258.094 60.6649 260.251 58.4861C262.407 56.171 265.44 54.2645 269.348 52.7665C273.257 51.2685 278.311 50.5195 284.511 50.5195C288.689 50.5195 292.598 50.6557 296.237 50.9281C299.876 51.0642 303.044 51.2685 305.739 51.5409C308.974 51.9494 312.006 52.358 314.837 52.7665L314.837 75.0319C312.815 71.6274 310.457 68.5634 307.761 65.8398C305.065 63.1162 302.235 60.8692 299.27 59.0989C296.439 57.1924 293.541 55.7625 290.576 54.8092C287.746 53.7198 285.118 53.175 282.692 53.175C279.457 53.175 277.031 54.0602 275.413 55.8305C273.661 57.8732 273.055 60.0521 273.594 62.3672C274.133 64.6822 275.413 67.2016 277.435 69.9252C279.592 72.6488 282.355 75.5086 285.724 78.5045C289.094 81.3643 292.665 84.4283 296.439 87.6967C302.639 92.8715 307.424 97.3654 310.793 101.178C314.298 104.855 316.185 108.668 316.454 112.618C316.859 118.201 316.05 122.695 314.028 126.099C312.006 129.368 309.378 131.955 306.144 133.862C303.044 135.632 299.674 136.79 296.035 137.334C292.531 137.879 289.498 138.151 286.937 138.151C283.702 138.151 280.333 138.015 276.829 137.743C273.324 137.47 270.022 137.198 266.922 136.926C263.418 136.653 259.981 136.313 256.612 135.904L256.612 113.843C259.712 118.201 262.744 121.81 265.709 124.67C268.674 127.393 271.505 129.572 274.2 131.206C276.896 132.704 279.39 133.794 281.681 134.474C283.972 135.019 285.994 135.292 287.746 135.292C289.229 135.292 290.442 135.155 291.385 134.883C292.463 134.474 293.339 134.134 294.013 133.862C296.844 132.228 298.057 130.185 297.652 127.734C297.383 125.282 296.507 122.899 295.024 120.584C293.272 117.997 290.779 115.273 287.544 112.413L268.944 96.4803C265.035 93.0758 262.07 89.9436 260.048 87.0839C258.162 84.2241 256.814 81.7728 256.005 79.7301C255.062 77.1427 254.657 74.8277 254.792 72.785Z" fill="#2D3319"/>
<path d="M443.272 79.3216C442.868 79.594 442.396 79.9344 441.857 80.3429C441.588 80.6153 441.183 81.0238 440.644 81.5686C440.24 82.1133 439.903 82.7942 439.633 83.6113C437.881 88.1052 435.927 92.8715 433.77 97.9102L422.247 126.712C421.168 129.163 420.158 131.615 419.214 134.066C418.405 136.381 417.462 138.764 416.384 141.215C415.44 143.53 414.16 145.982 412.542 148.569C410.925 151.157 409.038 153.54 406.882 155.719C404.725 158.034 402.232 159.872 399.401 161.234C396.706 162.732 393.606 163.481 390.101 163.481L390.101 148.978C396.032 148.978 400.682 148.365 404.051 147.139C407.421 145.914 410.049 144.552 411.936 143.054C414.092 141.42 415.575 139.513 416.384 137.334L406.477 137.334L382.217 83.6113C381.678 82.1133 380.936 81.0238 379.993 80.3429C379.454 79.9344 378.982 79.594 378.578 79.3216L403.849 79.3216C403.58 79.594 403.31 79.9344 403.04 80.3429C402.906 80.6153 402.838 81.0238 402.838 81.5686C402.838 82.1133 402.973 82.7942 403.243 83.6113L421.64 123.852L429.525 104.447C431.142 100.089 431.884 96.3441 431.749 93.212C431.614 90.0798 431.142 87.4924 430.334 85.4497C429.39 82.9985 428.11 80.9558 426.492 79.3216L443.272 79.3216Z" fill="#2D3319"/>
<path d="M351.662 78.9131C355.975 78.9131 359.951 79.7301 363.59 81.3643C367.364 82.8623 370.666 84.9731 373.497 87.6967C376.327 90.2841 378.551 93.4162 380.168 97.0931C381.786 100.77 382.594 104.651 382.594 108.736C382.594 112.822 381.786 116.703 380.168 120.38C378.551 124.057 376.327 127.257 373.497 129.981C370.666 132.568 367.364 134.679 363.59 136.313C359.951 137.811 355.975 138.56 351.662 138.56C347.349 138.56 343.306 137.811 339.532 136.313C335.758 134.679 332.456 132.568 329.625 129.981C326.93 127.257 324.773 124.057 323.156 120.38C321.539 116.703 320.73 112.822 320.73 108.736C320.73 104.651 321.539 100.77 323.156 97.0931C324.773 93.4162 326.93 90.2841 329.625 87.6967C332.456 84.9731 335.758 82.8623 339.532 81.3643C343.306 79.7301 347.349 78.9131 351.662 78.9131Z" fill="#2D3319"/>
<path d="M362.344 118.439C349.362 126.635 337.589 116.7 340.161 98.5332C340.342 97.252 341.434 96.2736 342.759 96.2029C354.432 95.5793 361.537 100.069 363.554 115.849C363.683 116.865 363.23 117.881 362.344 118.439Z" fill="#95CF74"/>
<path d="M367.343 118.442C358.925 117.093 354.38 116.82 349.774 108.488L367.343 118.442Z" fill="#95CF74"/>
<path d="M367.343 118.442C358.925 117.093 354.38 116.82 349.774 108.488" stroke="#2D3319" stroke-width="0.8" stroke-linecap="round" stroke-linejoin="round"/>
</svg>
