<svg width="511" height="212" viewBox="0 0 511 212" fill="none" xmlns="http://www.w3.org/2000/svg">
<rect width="510.091" height="213" rx="20" fill="white" fill-opacity="0.45"/>
<path d="M321.757 108.936C321.757 106.295 321.046 104.215 319.625 102.696C318.237 101.178 316.353 100.419 313.973 100.419C312.354 100.419 310.867 100.864 309.512 101.756C308.19 102.614 307.132 103.802 306.339 105.321C305.579 106.839 305.199 108.507 305.199 110.322V125.376H303.612V99.4777H305.199V105.271C306.025 103.357 307.248 101.822 308.867 100.666C310.52 99.5107 312.338 98.933 314.32 98.933C316.997 98.933 319.162 99.8408 320.815 101.656C322.5 103.439 323.343 105.833 323.343 108.837V125.376H321.757V108.936Z" fill="#F28149"/>
<path d="M285.182 125.92C282.505 125.92 280.324 125.029 278.638 123.246C276.986 121.431 276.159 119.021 276.159 116.017V99.4777H277.746V115.918C277.746 118.559 278.44 120.638 279.828 122.157C281.249 123.676 283.133 124.435 285.479 124.435C287.099 124.435 288.569 124.006 289.891 123.147C291.246 122.256 292.304 121.051 293.064 119.533C293.857 118.014 294.254 116.347 294.254 114.531V99.4777H295.84V125.376H294.303L294.254 119.632C293.428 121.546 292.205 123.081 290.585 124.237C288.966 125.359 287.165 125.92 285.182 125.92Z" fill="#F28149"/>
<path d="M259.346 125.92C256.735 125.92 254.389 125.161 252.306 123.643C250.257 122.091 248.836 119.83 248.043 116.859L249.53 116.413C250.29 119.087 251.546 121.084 253.298 122.405C255.083 123.692 257.099 124.336 259.346 124.336C262.023 124.336 264.188 123.659 265.84 122.306C267.526 120.919 268.368 119.12 268.368 116.908C268.368 114.663 267.526 112.881 265.84 111.56C264.188 110.24 261.891 109.101 258.949 108.143C256.9 107.483 255.198 106.773 253.843 106.014C252.488 105.255 251.398 104.281 250.571 103.093C249.745 101.904 249.332 100.419 249.332 98.6359C249.332 97.0183 249.762 95.5657 250.621 94.2783C251.48 92.9908 252.67 91.9839 254.19 91.2577C255.744 90.5314 257.512 90.1683 259.495 90.1683C261.874 90.1683 264.006 90.8285 265.89 92.149C267.774 93.4695 269.112 95.4337 269.905 98.0417L268.368 98.4378C267.641 96.193 266.485 94.5259 264.898 93.4365C263.312 92.3141 261.511 91.7528 259.495 91.7528C256.95 91.7528 254.884 92.3966 253.298 93.6841C251.745 94.9385 250.968 96.5891 250.968 98.6359C250.968 100.154 251.331 101.409 252.059 102.399C252.786 103.39 253.728 104.182 254.884 104.776C256.074 105.37 257.627 105.981 259.544 106.608C262.717 107.665 265.245 109.002 267.129 110.619C269.046 112.204 270.004 114.284 270.004 116.859C270.004 118.608 269.542 120.176 268.616 121.563C267.724 122.949 266.468 124.022 264.849 124.782C263.229 125.541 261.395 125.92 259.346 125.92Z" fill="#F28149"/>
<path d="M231.508 125.92C229.129 125.92 226.914 125.376 224.865 124.286C222.816 123.197 221.164 121.629 219.908 119.582C218.652 117.535 218.024 115.142 218.024 112.402C218.024 109.827 218.602 107.516 219.759 105.469C220.916 103.423 222.519 101.822 224.568 100.666C226.617 99.5107 228.93 98.933 231.508 98.933C233.888 98.933 236.069 99.4447 238.052 100.468C240.035 101.458 241.621 102.96 242.811 104.974C244.034 106.955 244.645 109.365 244.645 112.204C244.645 112.6 244.629 112.897 244.596 113.095H219.561C219.66 115.406 220.271 117.42 221.395 119.136C222.552 120.853 224.006 122.174 225.758 123.098C227.542 123.989 229.459 124.435 231.508 124.435C233.722 124.435 235.755 123.973 237.606 123.048C239.457 122.091 240.977 120.638 242.167 118.691L243.406 119.533C242.051 121.678 240.332 123.279 238.25 124.336C236.201 125.392 233.954 125.92 231.508 125.92ZM243.108 111.659C243.042 109.183 242.464 107.103 241.373 105.42C240.316 103.703 238.928 102.432 237.209 101.607C235.491 100.782 233.59 100.369 231.508 100.369C229.294 100.369 227.294 100.848 225.51 101.805C223.725 102.762 222.304 104.099 221.246 105.816C220.222 107.533 219.66 109.48 219.561 111.659H243.108Z" fill="#505168"/>
<path d="M210.327 89.2274H211.913V125.376H210.327V89.2274Z" fill="#505168"/>
<path d="M201.027 121.365C200.233 122.784 199.077 123.907 197.556 124.732C196.069 125.524 194.367 125.92 192.45 125.92C190.6 125.92 188.931 125.541 187.443 124.782C185.989 124.022 184.849 122.982 184.023 121.662C183.197 120.308 182.783 118.806 182.783 117.156C182.783 115.472 183.197 113.97 184.023 112.65C184.882 111.329 186.039 110.306 187.493 109.579C188.98 108.82 190.633 108.44 192.45 108.44C194.367 108.44 196.069 108.837 197.556 109.629C199.044 110.421 200.184 111.511 200.977 112.897V108.193C200.977 105.816 200.25 103.934 198.796 102.548C197.342 101.128 195.375 100.419 192.896 100.419C191.442 100.419 190.005 100.683 188.584 101.211C187.162 101.706 185.824 102.449 184.568 103.439L183.775 102.152C185.163 101.095 186.65 100.303 188.237 99.7748C189.823 99.2136 191.376 98.933 192.896 98.933C195.805 98.933 198.135 99.7748 199.886 101.458C201.671 103.142 202.563 105.387 202.563 108.193V125.376H201.126L201.027 121.365ZM192.649 124.484C195.094 124.484 197.094 123.808 198.647 122.454C200.2 121.068 200.977 119.301 200.977 117.156C200.977 115.01 200.2 113.26 198.647 111.907C197.094 110.52 195.094 109.827 192.649 109.827C190.203 109.827 188.203 110.504 186.65 111.857C185.13 113.211 184.37 114.977 184.37 117.156C184.37 119.301 185.146 121.068 186.7 122.454C188.253 123.808 190.236 124.484 192.649 124.484Z" fill="#505168"/>
<path d="M161.226 125.92C157.822 125.92 154.765 125.161 152.055 123.643C149.345 122.091 147.213 119.962 145.66 117.255C144.139 114.548 143.379 111.511 143.379 108.143C143.379 104.743 144.139 101.673 145.66 98.933C147.213 96.193 149.345 94.0472 152.055 92.4956C154.765 90.944 157.805 90.1683 161.176 90.1683C164.845 90.1683 167.985 90.9936 170.596 92.6442C173.239 94.2948 175.322 96.6386 176.842 99.6758L175.404 100.319C172.529 94.6084 167.803 91.7528 161.226 91.7528C158.152 91.7528 155.376 92.4626 152.898 93.8821C150.452 95.2686 148.535 97.2164 147.147 99.7253C145.759 102.201 145.065 105.007 145.065 108.143C145.065 111.247 145.759 114.036 147.147 116.512C148.535 118.955 150.452 120.87 152.898 122.256C155.376 123.643 158.152 124.336 161.226 124.336C164.035 124.336 166.58 123.709 168.86 122.454C171.141 121.167 172.975 119.401 174.363 117.156C175.751 114.878 176.544 112.286 176.743 109.381H160.532V107.896H178.428L178.379 108.787C178.18 112.154 177.321 115.142 175.801 117.75C174.281 120.325 172.248 122.339 169.703 123.791C167.191 125.211 164.366 125.92 161.226 125.92Z" fill="#505168"/>
<path fill-rule="evenodd" clip-rule="evenodd" d="M160.095 51.4852C143.039 51.4852 129.277 65.0202 129.277 81.6377C129.277 84.6122 129.717 87.4835 130.535 90.1946C130.738 90.3333 130.941 90.4871 131.127 90.6486C131.26 90.7642 131.403 90.8994 131.537 91.0505C131.662 91.1903 131.833 91.404 131.97 91.6787C132.041 91.8206 132.122 92.0173 132.169 92.2586C132.217 92.5033 132.237 92.8284 132.144 93.1897C132.047 93.5663 131.848 93.8982 131.58 94.1578C131.326 94.4049 131.051 94.5462 130.832 94.6278C130.424 94.78 130.039 94.7887 129.803 94.7812C129.538 94.7727 129.267 94.7347 129.005 94.6843L129.005 94.6842C127.585 94.4108 126.116 94.2675 124.611 94.2675C112.078 94.2675 101.982 104.211 101.982 116.398C101.982 128.585 112.078 138.529 124.611 138.529H128.705C129.775 138.529 130.642 139.395 130.642 140.463C130.642 141.532 129.775 142.398 128.705 142.398H124.611C110.01 142.398 98.1089 130.793 98.1089 116.398C98.1089 102.004 110.01 90.3988 124.611 90.3988C125.275 90.3988 125.933 90.4228 126.585 90.4699C125.815 87.652 125.404 84.6908 125.404 81.6377C125.404 62.813 140.971 47.6166 160.095 47.6166C177.912 47.6166 192.635 60.8013 194.571 77.8279C194.691 78.8893 193.928 79.8475 192.865 79.9681C191.802 80.0887 190.843 79.3259 190.722 78.2645C189.013 63.23 175.979 51.4852 160.095 51.4852ZM128.996 93.1537C129.101 93.118 129.214 93.0685 129.329 93.0015V93.0015C129.484 92.9117 129.641 92.7905 129.784 92.6293L129.371 92.7849L128.996 93.1537ZM149.697 140.463C149.697 139.395 150.564 138.529 151.633 138.529H201.517C202.587 138.529 203.454 139.395 203.454 140.463C203.454 141.532 202.587 142.398 201.517 142.398H151.633C150.564 142.398 149.697 141.532 149.697 140.463Z" fill="#505168"/>
<path fill-rule="evenodd" clip-rule="evenodd" d="M316.932 24.0181C318.002 24.0181 318.869 24.8841 318.869 25.9524V34.3185C318.869 35.3868 318.002 36.2528 316.932 36.2528C315.863 36.2528 314.996 35.3868 314.996 34.3185V25.9524C314.996 24.8841 315.863 24.0181 316.932 24.0181ZM390.081 50.1918C390.728 51.0422 390.562 52.2558 389.711 52.9023L380.743 59.7133C379.891 60.3599 378.676 60.1946 378.029 59.3442C377.382 58.4938 377.547 57.2803 378.399 56.6337L387.367 49.8227C388.218 49.1762 389.433 49.3414 390.081 50.1918ZM314.996 67.7334C314.996 66.6651 315.863 65.7991 316.932 65.7991C342.296 65.7991 360.503 86.1506 360.503 105.742C360.503 125.309 342.321 146.073 316.932 146.073C315.863 146.073 314.996 145.207 314.996 144.139C314.996 143.07 315.863 142.204 316.932 142.204C340.216 142.204 356.63 123.138 356.63 105.742C356.63 88.37 340.241 69.6677 316.932 69.6677C315.863 69.6677 314.996 68.8017 314.996 67.7334ZM403.127 105.742C403.127 104.674 403.994 103.808 405.064 103.808H416.08C417.15 103.808 418.017 104.674 418.017 105.742C418.017 106.81 417.15 107.676 416.08 107.676H405.064C403.994 107.676 403.127 106.81 403.127 105.742ZM378.026 152.178C378.671 151.326 379.886 151.158 380.739 151.803L389.707 158.58C390.56 159.225 390.729 160.438 390.083 161.29C389.438 162.142 388.224 162.31 387.371 161.665L378.402 154.888C377.549 154.243 377.381 153.03 378.026 152.178ZM316.932 176.199C318.002 176.199 318.869 177.065 318.869 178.134V186.5C318.869 187.568 318.002 188.434 316.932 188.434C315.863 188.434 314.996 187.568 314.996 186.5V178.134C314.996 177.065 315.863 176.199 316.932 176.199Z" fill="#F28149"/>
</svg>
