<svg width="16" height="16" viewBox="0 0 16 16" fill="none" xmlns="http://www.w3.org/2000/svg">
<path fill-rule="evenodd" clip-rule="evenodd" d="M8 1.11628C4.19822 1.11628 1.11628 4.19822 1.11628 8C1.11628 11.8017 4.19823 14.8837 8 14.8837C11.8017 14.8837 14.8837 11.8017 14.8837 8C14.8837 4.19823 11.8017 1.11628 8 1.11628ZM0 8C0 3.58172 3.58172 0 8 0C12.4182 0 16 3.58172 16 8C16 12.4182 12.4182 16 8 16C3.58172 16 0 12.4182 0 8Z" fill="white"/>
<path fill-rule="evenodd" clip-rule="evenodd" d="M8.19183 5.6486C6.67982 5.6486 5.52187 6.76865 5.52187 8.07058C5.52187 9.37249 6.67983 10.4926 8.19183 10.4926C8.57815 10.4926 8.94342 10.4183 9.27259 10.2859C9.56224 10.1694 9.89276 10.3067 10.0108 10.5925C10.1289 10.8784 9.9898 11.2045 9.70015 11.3211C9.23642 11.5076 8.72603 11.6104 8.19183 11.6104C6.12911 11.6104 4.38916 10.0612 4.38916 8.07058C4.38916 6.0799 6.12912 4.53076 8.19183 4.53076C8.72601 4.53076 9.23642 4.63354 9.70021 4.82017C9.98985 4.93672 10.1289 5.26291 10.0108 5.54875C9.89271 5.83458 9.56217 5.97181 9.27253 5.85526C8.94342 5.72283 8.57817 5.6486 8.19183 5.6486Z" fill="white"/>
</svg>
