<svg width="16" height="16" viewBox="0 0 16 16" fill="none" xmlns="http://www.w3.org/2000/svg">
<path fill-rule="evenodd" clip-rule="evenodd" d="M3.33333 6.33317C3.33333 4.06231 5.33995 1.99984 8 1.99984C10.6601 1.99984 12.6667 4.06231 12.6667 6.33317C12.6667 7.7631 11.7918 9.36024 10.6404 10.8406C9.73047 12.0105 8.7182 13.0218 8 13.7294C7.2818 13.0218 6.26951 12.0105 5.35957 10.8406C4.20819 9.36024 3.33333 7.7631 3.33333 6.33317ZM8 0.666504C4.66005 0.666504 2 3.2707 2 6.33317C2 8.23657 3.12514 10.1394 4.3071 11.6591C5.32991 12.9742 6.4796 14.1048 7.1982 14.8114C7.32207 14.9332 7.4332 15.0425 7.5286 15.1379C7.6536 15.2629 7.8232 15.3332 8 15.3332C8.1768 15.3332 8.3464 15.2629 8.4714 15.1379C8.5668 15.0425 8.67793 14.9332 8.8018 14.8114C9.52033 14.1048 10.6701 12.9742 11.6929 11.6591C12.8749 10.1394 14 8.23657 14 6.33317C14 3.2707 11.3399 0.666504 8 0.666504ZM8 8.33317C8.92047 8.33317 9.66667 7.58697 9.66667 6.6665C9.66667 5.74603 8.92047 4.99984 8 4.99984C7.07953 4.99984 6.33333 5.74603 6.33333 6.6665C6.33333 7.58697 7.07953 8.33317 8 8.33317Z" fill="white"/>
</svg>
